<?xml version="1.0" encoding="utf-8"?>
<!-- Generator: Adobe Illustrator 23.0.3, SVG Export Plug-In . SVG Version: 6.00 Build 0)  -->
<svg version="1.1" id="Capa_1" xmlns="http://www.w3.org/2000/svg" xmlns:xlink="http://www.w3.org/1999/xlink" x="0px" y="0px"
	 viewBox="0 0 511.6 511.6" style="enable-background:new 0 0 511.6 511.6;" xml:space="preserve">
<style type="text/css">
	.st0{fill:url(#SVGID_1_);}
</style>
<linearGradient id="SVGID_1_" gradientUnits="userSpaceOnUse" x1="0" y1="255.8124" x2="511.626" y2="255.8124">
	<stop  offset="0" style="stop-color:#1245C6"/>
	<stop  offset="1" style="stop-color:#9909B7"/>
</linearGradient>
<path class="st0" d="M301.9,327.6c30.9-13,55.3-30.8,73.2-53.2C393,251.9,402,227.4,402,201c0-26.5-8.9-50.9-26.8-73.4
	c-17.9-22.5-42.3-40.2-73.2-53.2C271,61.3,237.4,54.8,201,54.8c-36.4,0-70,6.5-100.9,19.6c-30.9,13-55.3,30.8-73.2,53.2
	C8.9,150.1,0,174.5,0,201c0,22.6,6.8,44,20.3,64c13.5,20,32.1,36.8,55.7,50.5c-1.9,4.6-3.9,8.8-5.9,12.6c-2,3.8-4.4,7.5-7.1,11
	c-2.8,3.5-4.9,6.3-6.4,8.3c-1.5,2-4,4.8-7.4,8.4c-3.4,3.6-5.6,6-6.6,7.1c0-0.2-0.4,0.2-1.1,1.3c-0.8,1-1.2,1.5-1.3,1.4
	c-0.1-0.1-0.5,0.4-1.1,1.4c-0.7,1-1,1.6-1,1.6l-0.7,1.4c-0.3,0.6-0.5,1.1-0.6,1.7c-0.1,0.6-0.1,1.2-0.1,1.9s0.1,1.3,0.3,1.9
	c0.4,2.5,1.5,4.5,3.3,6c1.8,1.5,3.8,2.3,5.9,2.3h0.9c9.5-1.3,17.7-2.9,24.6-4.6c29.3-7.6,55.8-19.8,79.4-36.5
	c17.1,3,33.9,4.6,50.2,4.6C237.4,347.2,271,340.6,301.9,327.6z M491.4,338.2c13.5-19.9,20.3-41.2,20.3-64.1
	c0-23.4-7.1-45.3-21.4-65.7c-14.3-20.4-33.7-37.3-58.2-50.8c4.4,14.3,6.6,28.7,6.6,43.4c0,25.5-6.4,49.7-19.1,72.5
	c-12.8,22.8-31,43-54.8,60.5c-22.1,16-47.2,28.3-75.4,36.8c-28.2,8.6-57.6,12.8-88.2,12.8c-5.7,0-14.1-0.4-25.1-1.1
	c38.3,25.1,83.2,37.7,134.8,37.7c16.4,0,33.1-1.5,50.3-4.6c23.6,16.8,50.1,28.9,79.4,36.5c6.9,1.7,15,3.2,24.6,4.6
	c2.3,0.2,4.4-0.5,6.3-2c1.9-1.5,3.1-3.6,3.7-6.3c-0.1-1.1,0-1.8,0.3-1.9c0.3-0.1,0.2-0.7-0.1-1.9c-0.4-1.1-0.6-1.7-0.6-1.7l-0.7-1.4
	c-0.2-0.4-0.5-0.9-1-1.6c-0.5-0.7-0.9-1.1-1.1-1.4c-0.3-0.3-0.7-0.8-1.3-1.4c-0.6-0.7-1-1.1-1.1-1.3c-1-1.1-3.1-3.5-6.6-7.1
	c-3.4-3.6-5.9-6.4-7.4-8.4c-1.5-2-3.7-4.8-6.4-8.3c-2.8-3.5-5.1-7.2-7.1-11c-2-3.8-3.9-8-5.9-12.6
	C459.3,374.9,477.8,358.1,491.4,338.2z"/>
</svg>
