<svg id="svg" version="1.1" xmlns="http://www.w3.org/2000/svg" xmlns:xlink="http://www.w3.org/1999/xlink" width="400" height="400" viewBox="0, 0, 400,400"><g id="svgg"><path id="path0" d="M102.900 0.291 C 101.525 0.372,100.400 0.610,100.400 0.819 C 100.400 1.029,99.331 1.200,98.024 1.200 C 96.717 1.200,95.536 1.380,95.400 1.600 C 95.264 1.820,94.443 2.000,93.576 2.000 C 92.709 2.000,92.000 2.180,92.000 2.400 C 92.000 2.620,91.280 2.800,90.400 2.800 C 89.520 2.800,88.800 2.980,88.800 3.200 C 88.800 3.420,88.181 3.600,87.424 3.600 C 86.667 3.600,85.936 3.780,85.800 4.000 C 85.664 4.220,85.023 4.400,84.376 4.400 C 83.729 4.400,83.200 4.580,83.200 4.800 C 83.200 5.020,82.660 5.200,82.000 5.200 C 81.340 5.200,80.800 5.380,80.800 5.600 C 80.800 5.820,80.350 6.000,79.800 6.000 C 79.250 6.000,78.800 6.180,78.800 6.400 C 78.800 6.620,78.361 6.800,77.824 6.800 C 77.287 6.800,76.736 6.980,76.600 7.200 C 76.464 7.420,76.003 7.600,75.576 7.600 C 75.149 7.600,74.800 7.780,74.800 8.000 C 74.800 8.220,74.260 8.400,73.600 8.400 C 72.940 8.400,72.400 8.580,72.400 8.800 C 72.400 9.020,72.040 9.200,71.600 9.200 C 71.160 9.200,70.800 9.380,70.800 9.600 C 70.800 9.820,70.485 10.001,70.100 10.001 C 69.715 10.002,68.150 10.632,66.623 11.401 C 65.096 12.171,63.611 12.800,63.323 12.800 C 63.035 12.800,62.800 12.946,62.800 13.125 C 62.800 13.304,62.170 13.698,61.400 14.000 C 60.630 14.302,60.000 14.696,60.000 14.875 C 60.000 15.054,59.764 15.200,59.475 15.200 C 59.187 15.200,58.564 15.560,58.092 16.000 C 57.620 16.440,56.956 16.800,56.617 16.800 C 56.278 16.800,56.000 16.958,56.000 17.151 C 56.000 17.345,55.460 17.727,54.800 18.000 C 54.140 18.273,53.600 18.655,53.600 18.849 C 53.600 19.042,53.280 19.200,52.888 19.200 C 52.497 19.200,51.917 19.560,51.600 20.000 C 51.283 20.440,50.793 20.800,50.512 20.800 C 50.230 20.800,50.000 20.980,50.000 21.200 C 50.000 21.420,49.770 21.600,49.488 21.600 C 49.207 21.600,48.717 21.960,48.400 22.400 C 48.083 22.840,47.685 23.200,47.516 23.200 C 47.222 23.200,46.096 24.045,44.984 25.100 C 44.694 25.375,44.348 25.600,44.214 25.600 C 43.961 25.600,43.143 26.308,40.285 29.000 C 39.350 29.880,37.901 31.114,37.063 31.743 C 34.991 33.298,31.600 36.818,31.600 37.413 C 31.600 37.526,30.655 38.599,29.500 39.800 C 26.596 42.817,25.600 43.936,25.600 44.181 C 25.600 44.392,24.627 45.640,23.700 46.616 C 23.425 46.906,23.200 47.296,23.200 47.483 C 23.200 47.670,22.840 48.083,22.400 48.400 C 21.960 48.717,21.600 49.207,21.600 49.488 C 21.600 49.770,21.420 50.000,21.200 50.000 C 20.980 50.000,20.800 50.270,20.800 50.600 C 20.800 50.930,20.620 51.200,20.400 51.200 C 20.180 51.200,20.000 51.481,20.000 51.824 C 20.000 52.193,19.812 52.331,19.538 52.162 C 19.273 51.998,19.184 52.051,19.330 52.287 C 19.469 52.512,19.232 53.101,18.804 53.596 C 18.375 54.090,17.916 54.834,17.785 55.248 C 17.654 55.661,17.378 56.000,17.173 56.000 C 16.968 56.000,16.800 56.332,16.800 56.738 C 16.800 57.144,16.440 57.802,16.000 58.200 C 15.560 58.598,15.200 59.166,15.200 59.462 C 15.200 59.758,15.056 60.000,14.880 60.000 C 14.705 60.000,14.333 60.630,14.054 61.400 C 13.776 62.170,13.359 62.800,13.127 62.800 C 12.896 62.800,12.798 63.148,12.909 63.574 C 13.026 64.022,12.877 64.438,12.556 64.562 C 12.250 64.679,12.000 65.141,12.000 65.587 C 12.000 66.034,11.841 66.400,11.647 66.400 C 11.452 66.400,11.162 66.805,11.000 67.300 C 10.576 68.604,10.509 68.789,10.419 68.900 C 10.375 68.955,10.272 69.357,10.191 69.793 C 10.110 70.229,9.854 70.649,9.622 70.726 C 9.076 70.908,9.071 72.000,9.616 72.000 C 9.856 72.000,9.813 72.236,9.516 72.558 C 9.232 72.865,8.865 73.034,8.700 72.934 C 8.535 72.835,8.400 73.388,8.400 74.164 C 8.400 75.277,8.532 75.524,9.023 75.336 C 9.366 75.204,9.552 74.853,9.438 74.555 C 9.265 74.104,12.982 73.995,31.615 73.907 C 44.171 73.847,54.000 73.953,54.000 74.149 C 54.000 74.341,54.305 74.251,54.677 73.949 C 55.251 73.483,55.303 73.484,55.021 73.952 C 54.791 74.335,54.859 74.444,55.244 74.310 C 55.550 74.204,55.750 73.834,55.689 73.489 C 55.629 73.143,55.944 72.745,56.389 72.603 C 56.835 72.462,57.200 72.107,57.200 71.816 C 57.200 71.524,57.496 71.172,57.857 71.033 C 58.219 70.895,58.410 70.676,58.281 70.548 C 58.153 70.420,58.488 69.876,59.024 69.339 C 59.561 68.803,60.000 68.192,60.000 67.982 C 60.000 67.772,60.270 67.600,60.600 67.600 C 61.141 67.600,61.378 67.125,61.247 66.300 C 61.221 66.135,61.335 66.021,61.500 66.047 C 62.297 66.173,62.822 65.960,62.600 65.600 C 62.464 65.380,62.535 65.200,62.758 65.200 C 63.285 65.200,65.200 63.285,65.200 62.758 C 65.200 62.535,65.380 62.464,65.600 62.600 C 65.967 62.827,66.178 62.280,66.037 61.470 C 66.006 61.289,66.155 61.249,66.369 61.381 C 66.583 61.513,67.560 60.819,68.540 59.839 C 69.521 58.858,70.426 58.159,70.552 58.285 C 70.678 58.411,70.894 58.220,71.032 57.860 C 71.171 57.499,71.436 57.299,71.622 57.414 C 71.808 57.528,72.155 57.257,72.394 56.811 C 72.633 56.365,73.065 56.000,73.355 56.000 C 73.644 56.000,74.446 55.460,75.137 54.800 C 75.828 54.140,76.664 53.600,76.996 53.600 C 77.328 53.600,77.600 53.420,77.600 53.200 C 77.600 52.980,77.836 52.800,78.125 52.800 C 78.413 52.800,79.036 52.440,79.508 52.000 C 79.980 51.560,80.644 51.200,80.983 51.200 C 81.322 51.200,81.600 51.020,81.600 50.800 C 81.600 50.580,81.960 50.400,82.400 50.400 C 82.840 50.400,83.201 50.265,83.203 50.100 C 83.207 49.741,85.144 48.800,85.880 48.800 C 86.166 48.800,86.400 48.620,86.400 48.400 C 86.400 48.180,86.760 48.000,87.200 48.000 C 87.640 48.000,88.000 47.820,88.000 47.600 C 88.000 47.380,88.450 47.200,89.000 47.200 C 89.550 47.200,90.000 47.020,90.000 46.800 C 90.000 46.580,90.360 46.400,90.800 46.400 C 91.240 46.400,91.600 46.220,91.600 46.000 C 91.600 45.780,92.140 45.600,92.800 45.600 C 93.460 45.600,94.000 45.420,94.000 45.200 C 94.000 44.980,94.540 44.800,95.200 44.800 C 95.860 44.800,96.400 44.620,96.400 44.400 C 96.400 44.180,97.120 44.000,98.000 44.000 C 98.880 44.000,99.600 43.820,99.600 43.600 C 99.600 43.380,100.219 43.200,100.976 43.200 C 101.733 43.200,102.464 43.020,102.600 42.800 C 102.736 42.580,103.632 42.400,104.590 42.400 C 105.629 42.400,106.401 42.198,106.500 41.900 C 106.745 41.165,293.255 41.165,293.500 41.900 C 293.603 42.210,294.416 42.400,295.633 42.400 C 296.715 42.400,297.600 42.580,297.600 42.800 C 297.600 43.020,298.230 43.200,299.000 43.200 C 299.770 43.200,300.400 43.380,300.400 43.600 C 300.400 43.820,301.120 44.000,302.000 44.000 C 302.880 44.000,303.600 44.180,303.600 44.400 C 303.600 44.620,304.140 44.800,304.800 44.800 C 305.460 44.800,306.000 44.980,306.000 45.200 C 306.000 45.420,306.540 45.600,307.200 45.600 C 307.860 45.600,308.400 45.780,308.400 46.000 C 308.400 46.220,308.760 46.400,309.200 46.400 C 309.640 46.400,310.000 46.580,310.000 46.800 C 310.000 47.020,310.450 47.200,311.000 47.200 C 311.550 47.200,312.000 47.380,312.000 47.600 C 312.000 47.820,312.461 48.000,313.024 48.000 C 313.604 48.000,313.940 48.173,313.800 48.400 C 313.664 48.620,313.923 48.800,314.376 48.800 C 314.829 48.800,315.200 48.980,315.200 49.200 C 315.200 49.420,315.560 49.600,316.000 49.600 C 316.440 49.600,316.800 49.780,316.800 50.000 C 316.800 50.220,317.160 50.400,317.600 50.400 C 318.040 50.400,318.400 50.580,318.400 50.800 C 318.400 51.020,318.720 51.200,319.112 51.200 C 319.503 51.200,320.076 51.550,320.385 51.979 C 320.693 52.407,321.070 52.681,321.221 52.587 C 321.373 52.493,321.901 52.768,322.396 53.196 C 322.890 53.625,323.634 54.084,324.048 54.215 C 324.461 54.346,324.800 54.632,324.800 54.851 C 324.800 55.069,324.981 55.135,325.203 54.998 C 325.424 54.861,325.714 55.031,325.846 55.375 C 325.978 55.719,326.293 56.000,326.547 56.000 C 326.800 56.000,327.232 56.360,327.507 56.800 C 327.782 57.240,328.238 57.600,328.520 57.600 C 328.802 57.600,329.701 58.230,330.518 59.000 C 331.334 59.770,332.211 60.400,332.468 60.400 C 332.724 60.400,332.824 60.509,332.691 60.643 C 332.374 60.960,333.309 61.971,333.700 61.734 C 333.865 61.635,334.000 61.712,334.000 61.906 C 334.000 62.100,334.990 63.273,336.200 64.512 C 337.410 65.751,338.400 66.670,338.400 66.554 C 338.400 66.438,338.670 66.613,339.000 66.943 C 339.330 67.273,339.600 67.652,339.600 67.785 C 339.600 67.918,340.215 68.642,340.967 69.393 C 341.718 70.145,342.451 71.132,342.596 71.586 C 342.740 72.040,343.019 72.312,343.217 72.189 C 343.415 72.067,343.693 72.430,343.835 72.996 C 344.067 73.922,344.142 73.958,344.586 73.352 C 344.975 72.820,345.146 72.788,345.401 73.201 C 345.614 73.546,345.567 73.627,345.262 73.438 C 344.959 73.251,344.800 73.505,344.800 74.176 C 344.800 75.233,345.405 75.585,345.700 74.700 C 345.917 74.048,390.400 73.740,390.400 74.390 C 390.400 74.616,390.670 74.800,391.000 74.800 C 391.689 74.800,391.839 72.995,391.184 72.590 C 390.955 72.448,390.870 72.009,390.996 71.614 C 391.134 71.177,390.986 70.804,390.619 70.663 C 390.241 70.518,390.112 70.174,390.275 69.750 C 390.434 69.335,390.377 69.167,390.128 69.321 C 389.898 69.463,389.482 68.836,389.176 67.887 C 388.878 66.959,388.536 66.110,388.417 66.000 C 388.015 65.629,387.200 64.014,387.200 63.589 C 387.200 63.357,386.840 62.780,386.400 62.308 C 385.960 61.836,385.600 61.123,385.600 60.725 C 385.600 60.326,385.420 60.000,385.200 60.000 C 384.980 60.000,384.800 59.680,384.800 59.288 C 384.800 58.897,384.440 58.317,384.000 58.000 C 383.560 57.683,383.200 57.103,383.200 56.712 C 383.200 56.320,383.020 56.000,382.800 56.000 C 382.580 56.000,382.400 55.764,382.400 55.475 C 382.400 55.187,382.040 54.564,381.600 54.092 C 381.160 53.620,380.800 52.996,380.800 52.705 C 380.800 52.414,380.440 51.917,380.000 51.600 C 379.560 51.283,379.200 50.783,379.200 50.488 C 379.200 50.194,379.020 50.064,378.800 50.200 C 378.580 50.336,378.400 50.116,378.400 49.712 C 378.400 49.307,378.040 48.717,377.600 48.400 C 377.160 48.083,376.800 47.593,376.800 47.312 C 376.800 47.030,376.620 46.800,376.400 46.800 C 376.180 46.800,376.000 46.530,376.000 46.200 C 376.000 45.870,375.859 45.600,375.686 45.600 C 375.514 45.600,375.028 45.017,374.608 44.305 C 374.187 43.593,372.476 41.658,370.805 40.005 C 367.784 37.016,367.600 36.785,367.600 35.976 C 367.600 35.743,367.420 35.664,367.200 35.800 C 366.980 35.936,366.800 35.851,366.800 35.610 C 366.800 35.060,364.638 32.894,362.800 31.604 C 362.030 31.064,360.474 29.672,359.343 28.511 C 358.212 27.350,357.087 26.400,356.843 26.400 C 356.599 26.400,356.400 26.220,356.400 26.000 C 356.400 25.780,356.218 25.600,355.996 25.600 C 355.774 25.600,355.028 25.060,354.337 24.400 C 353.646 23.740,352.926 23.200,352.737 23.200 C 352.548 23.200,351.828 22.660,351.137 22.000 C 350.446 21.340,349.678 20.800,349.429 20.800 C 349.180 20.800,348.717 20.440,348.400 20.000 C 348.083 19.560,347.503 19.200,347.112 19.200 C 346.720 19.200,346.400 19.042,346.400 18.849 C 346.400 18.655,345.860 18.273,345.200 18.000 C 344.540 17.727,344.000 17.345,344.000 17.151 C 344.000 16.958,343.722 16.800,343.383 16.800 C 343.044 16.800,342.380 16.440,341.908 16.000 C 341.436 15.560,340.544 14.976,339.925 14.703 C 339.306 14.429,338.800 14.069,338.800 13.902 C 338.800 13.736,338.440 13.600,338.000 13.600 C 337.560 13.600,337.200 13.420,337.200 13.200 C 337.200 12.980,336.840 12.800,336.400 12.800 C 335.960 12.800,335.600 12.620,335.600 12.400 C 335.600 12.180,335.240 12.000,334.800 12.000 C 334.360 12.000,334.000 11.820,334.000 11.600 C 334.000 11.380,333.640 11.200,333.200 11.200 C 332.760 11.200,332.400 11.036,332.400 10.835 C 332.400 10.634,331.680 10.349,330.800 10.200 C 329.920 10.051,329.200 9.766,329.200 9.565 C 329.200 9.364,328.840 9.200,328.400 9.200 C 327.960 9.200,327.600 9.020,327.600 8.800 C 327.600 8.580,327.060 8.400,326.400 8.400 C 325.740 8.400,325.200 8.220,325.200 8.000 C 325.200 7.780,324.928 7.600,324.595 7.600 C 324.262 7.600,323.632 7.420,323.195 7.200 C 322.758 6.980,322.042 6.620,321.605 6.400 C 321.168 6.180,320.448 6.000,320.005 6.000 C 319.562 6.000,319.200 5.820,319.200 5.600 C 319.200 5.380,318.660 5.200,318.000 5.200 C 317.340 5.200,316.800 5.020,316.800 4.800 C 316.800 4.580,316.271 4.400,315.624 4.400 C 314.977 4.400,314.336 4.220,314.200 4.000 C 314.064 3.780,313.333 3.600,312.576 3.600 C 311.819 3.600,311.200 3.420,311.200 3.200 C 311.200 2.980,310.480 2.800,309.600 2.800 C 308.720 2.800,308.000 2.620,308.000 2.400 C 308.000 2.180,307.291 2.000,306.424 2.000 C 305.557 2.000,304.736 1.820,304.600 1.600 C 304.464 1.380,303.298 1.200,302.010 1.200 C 300.491 1.200,299.608 1.024,299.500 0.700 C 299.344 0.232,110.601 -0.160,102.900 0.291 M302.000 72.121 C 302.000 72.507,301.379 72.614,299.644 72.528 C 298.036 72.449,297.146 72.583,296.841 72.950 C 296.595 73.247,295.944 73.440,295.395 73.380 C 294.846 73.319,294.499 73.437,294.626 73.642 C 294.752 73.846,295.068 73.886,295.328 73.730 C 295.588 73.573,295.550 73.754,295.243 74.133 C 294.937 74.510,294.802 74.935,294.943 75.076 C 295.084 75.218,295.200 75.093,295.200 74.800 C 295.200 74.507,295.317 74.384,295.460 74.527 C 295.604 74.670,295.960 74.475,296.253 74.094 C 296.670 73.550,296.858 73.511,297.126 73.916 C 297.375 74.293,297.741 74.326,298.492 74.041 C 299.056 73.827,299.626 73.760,299.759 73.892 C 299.891 74.025,300.000 73.923,300.000 73.667 C 300.000 73.410,300.191 73.200,300.424 73.200 C 300.657 73.200,300.730 73.390,300.587 73.621 C 300.410 73.908,301.839 74.028,305.063 73.999 C 307.668 73.975,309.890 73.979,310.000 74.008 C 310.110 74.036,310.642 74.141,311.183 74.240 C 311.723 74.339,312.309 74.641,312.484 74.910 C 312.674 75.203,312.745 74.998,312.661 74.400 C 312.549 73.606,312.302 73.409,311.460 73.445 C 310.877 73.470,310.400 73.278,310.400 73.019 C 310.400 72.711,309.475 72.526,307.729 72.483 C 306.260 72.447,304.955 72.278,304.829 72.109 C 304.412 71.546,302.000 71.557,302.000 72.121 M293.066 74.571 C 292.934 74.917,292.528 75.054,292.024 74.922 C 291.571 74.804,291.200 74.887,291.200 75.107 C 291.200 75.868,292.701 75.909,293.338 75.164 C 293.685 74.759,293.814 74.333,293.626 74.216 C 293.438 74.100,293.186 74.260,293.066 74.571 M313.200 74.504 C 313.200 75.370,314.685 76.078,314.966 75.345 C 315.096 75.006,315.101 74.564,314.978 74.364 C 314.638 73.814,313.200 73.928,313.200 74.504 M53.829 74.780 C 53.200 75.009,53.170 75.103,53.666 75.293 C 54.338 75.551,55.487 75.018,54.943 74.700 C 54.754 74.590,54.253 74.626,53.829 74.780 M346.000 76.109 C 346.000 76.421,346.368 77.009,346.817 77.416 C 347.614 78.137,347.627 78.136,347.340 77.378 C 346.903 76.227,346.000 75.372,346.000 76.109 M319.883 77.988 C 320.254 78.421,320.638 78.696,320.736 78.598 C 320.974 78.359,319.995 77.200,319.555 77.200 C 319.364 77.200,319.511 77.555,319.883 77.988 M126.202 126.398 C 125.803 126.839,125.607 127.200,125.767 127.200 C 126.188 127.200,127.328 125.995,127.112 125.779 C 127.011 125.678,126.602 125.956,126.202 126.398 " stroke="none" fill="#7e24b7" fill-rule="evenodd"></path><path id="path1" d="M15.440 341.106 C 15.682 341.268,15.983 341.670,16.108 342.000 C 16.261 342.401,16.347 342.301,16.368 341.700 C 16.390 341.095,16.170 340.802,15.700 340.806 C 15.268 340.810,15.169 340.925,15.440 341.106 M69.200 341.557 C 69.200 341.785,69.548 342.158,69.974 342.386 C 70.951 342.909,71.200 342.907,71.200 342.376 C 71.200 342.143,71.035 342.055,70.832 342.180 C 70.630 342.305,70.180 342.123,69.832 341.775 C 69.485 341.427,69.200 341.329,69.200 341.557 M18.069 343.575 C 17.736 344.530,17.785 344.849,18.329 345.275 C 18.944 345.757,18.950 345.734,18.400 345.000 C 17.844 344.258,17.851 344.240,18.500 344.749 C 18.885 345.051,19.200 345.617,19.200 346.006 C 19.200 346.396,19.470 346.818,19.800 346.945 C 20.647 347.270,20.551 348.027,19.700 347.734 C 19.133 347.538,19.151 347.610,19.796 348.111 C 20.233 348.451,20.716 348.652,20.868 348.558 C 21.020 348.464,21.275 348.598,21.434 348.855 C 21.615 349.148,21.550 349.216,21.262 349.038 C 21.008 348.881,20.800 348.943,20.800 349.176 C 20.800 349.409,20.980 349.600,21.200 349.600 C 21.420 349.600,21.600 349.960,21.600 350.400 C 21.600 350.865,21.867 351.200,22.237 351.200 C 22.588 351.200,22.969 351.560,23.084 352.000 C 23.199 352.440,23.452 352.800,23.647 352.800 C 23.841 352.800,24.000 352.990,24.000 353.222 C 24.000 353.454,24.539 354.219,25.198 354.922 C 25.857 355.625,26.397 356.353,26.398 356.540 C 26.399 356.726,26.959 357.401,27.642 358.040 C 28.326 358.678,28.770 359.200,28.629 359.200 C 28.488 359.200,28.964 359.810,29.687 360.556 C 32.118 363.067,34.000 365.287,34.000 365.645 C 34.000 365.840,34.169 366.000,34.375 366.000 C 34.736 366.000,35.877 366.969,40.032 370.800 C 42.717 373.276,43.117 373.600,43.495 373.600 C 43.676 373.600,44.083 373.960,44.400 374.400 C 44.717 374.840,45.207 375.200,45.488 375.200 C 45.770 375.200,46.000 375.380,46.000 375.600 C 46.000 375.820,46.230 376.000,46.512 376.000 C 46.793 376.000,47.283 376.360,47.600 376.800 C 47.917 377.240,48.417 377.600,48.712 377.600 C 49.006 377.600,49.136 377.780,49.000 378.000 C 48.864 378.220,49.007 378.400,49.317 378.400 C 49.627 378.400,50.446 378.940,51.137 379.600 C 51.828 380.260,52.664 380.800,52.996 380.800 C 53.328 380.800,53.600 380.959,53.600 381.153 C 53.600 381.348,53.915 381.607,54.300 381.729 C 55.236 382.025,57.366 383.324,57.533 383.700 C 57.607 383.865,57.888 384.000,58.158 384.000 C 58.428 384.000,58.998 384.325,59.425 384.722 C 59.851 385.120,60.785 385.703,61.500 386.020 C 62.215 386.336,62.800 386.731,62.800 386.898 C 62.800 387.064,63.160 387.200,63.600 387.200 C 64.040 387.200,64.400 387.380,64.400 387.600 C 64.400 387.820,64.634 388.000,64.920 388.000 C 65.656 388.000,67.593 388.941,67.597 389.300 C 67.599 389.465,67.839 389.600,68.132 389.600 C 68.425 389.600,69.550 390.049,70.632 390.598 C 71.714 391.147,73.095 391.597,73.700 391.598 C 74.305 391.599,74.800 391.780,74.800 392.000 C 74.800 392.220,75.340 392.400,76.000 392.400 C 76.660 392.400,77.200 392.580,77.200 392.800 C 77.200 393.020,77.560 393.200,78.000 393.200 C 78.440 393.200,78.800 393.380,78.800 393.600 C 78.800 393.820,79.250 394.000,79.800 394.000 C 80.350 394.000,80.800 394.180,80.800 394.400 C 80.800 394.620,81.340 394.800,82.000 394.800 C 82.660 394.800,83.200 394.980,83.200 395.200 C 83.200 395.420,83.819 395.600,84.576 395.600 C 85.333 395.600,86.064 395.780,86.200 396.000 C 86.336 396.220,86.966 396.400,87.600 396.400 C 88.234 396.400,88.864 396.580,89.000 396.800 C 89.136 397.020,89.867 397.200,90.624 397.200 C 91.381 397.200,92.000 397.380,92.000 397.600 C 92.000 397.820,92.709 398.000,93.576 398.000 C 94.443 398.000,95.264 398.180,95.400 398.400 C 95.536 398.620,96.792 398.800,98.190 398.800 C 99.869 398.800,100.790 398.970,100.900 399.300 C 101.145 400.036,299.255 400.036,299.500 399.300 C 299.608 398.976,300.491 398.800,302.010 398.800 C 303.298 398.800,304.464 398.620,304.600 398.400 C 304.736 398.180,305.456 398.000,306.200 398.000 C 306.944 398.000,307.652 397.840,307.773 397.644 C 307.894 397.449,308.624 397.179,309.396 397.044 C 310.168 396.910,311.430 396.690,312.200 396.556 C 312.970 396.422,313.600 396.189,313.600 396.038 C 313.600 395.887,314.275 395.719,315.100 395.664 C 315.925 395.610,316.660 395.393,316.733 395.182 C 316.807 394.972,317.392 394.800,318.033 394.800 C 318.675 394.800,319.200 394.620,319.200 394.400 C 319.200 394.180,319.549 394.000,319.976 394.000 C 320.403 394.000,320.864 393.820,321.000 393.600 C 321.136 393.380,321.597 393.200,322.024 393.200 C 322.451 393.200,322.800 393.020,322.800 392.800 C 322.800 392.580,323.340 392.400,324.000 392.400 C 324.660 392.400,325.200 392.220,325.200 392.000 C 325.200 391.780,325.695 391.599,326.300 391.598 C 326.905 391.597,328.286 391.147,329.368 390.598 C 330.450 390.049,331.575 389.600,331.868 389.600 C 332.161 389.600,332.401 389.465,332.403 389.300 C 332.407 388.941,334.344 388.000,335.080 388.000 C 335.366 388.000,335.601 387.865,335.603 387.700 C 335.607 387.341,337.544 386.400,338.280 386.400 C 338.566 386.400,338.800 386.248,338.800 386.063 C 338.800 385.877,339.610 385.309,340.600 384.800 C 341.590 384.291,342.400 383.723,342.400 383.537 C 342.400 383.352,342.720 383.200,343.112 383.200 C 343.503 383.200,344.083 382.840,344.400 382.400 C 344.717 381.960,345.297 381.600,345.688 381.600 C 346.080 381.600,346.400 381.420,346.400 381.200 C 346.400 380.980,346.636 380.800,346.925 380.800 C 347.213 380.800,347.836 380.440,348.308 380.000 C 348.780 379.560,349.262 379.200,349.379 379.200 C 349.633 379.200,350.950 378.138,352.232 376.900 C 352.744 376.405,353.352 376.000,353.582 376.000 C 353.812 376.000,354.000 375.832,354.000 375.627 C 354.000 375.422,354.341 375.146,354.758 375.013 C 355.409 374.807,357.627 372.939,360.600 370.094 C 361.040 369.672,361.987 368.925,362.705 368.433 C 363.422 367.941,363.907 367.373,363.781 367.169 C 363.656 366.966,363.842 366.800,364.195 366.800 C 365.025 366.800,366.800 365.025,366.800 364.195 C 366.800 363.842,366.966 363.656,367.169 363.781 C 367.373 363.907,367.941 363.422,368.433 362.705 C 369.358 361.356,369.849 360.779,372.101 358.400 C 372.829 357.630,374.038 356.100,374.787 355.000 C 375.537 353.900,376.431 352.730,376.775 352.400 C 377.940 351.281,380.016 348.050,379.908 347.524 C 379.849 347.236,380.019 347.043,380.286 347.095 C 380.568 347.150,380.675 346.939,380.541 346.591 C 380.371 346.146,380.495 346.062,381.021 346.263 C 381.519 346.455,381.642 346.391,381.431 346.050 C 381.266 345.783,381.349 345.303,381.615 344.982 C 381.880 344.662,381.941 344.397,381.749 344.394 C 381.557 344.391,381.670 344.213,382.000 344.000 C 382.400 343.742,382.433 343.610,382.100 343.606 C 381.239 343.596,381.555 342.864,382.500 342.682 C 382.995 342.587,371.565 342.484,357.100 342.454 C 342.635 342.425,330.800 342.550,330.800 342.732 C 330.800 343.483,328.856 344.144,328.214 343.611 C 327.804 343.271,327.600 343.249,327.600 343.546 C 327.600 343.790,326.984 344.246,326.232 344.561 C 325.480 344.875,324.658 345.518,324.405 345.990 C 324.153 346.462,323.735 346.778,323.477 346.692 C 323.219 346.606,322.691 346.939,322.304 347.431 C 321.817 348.050,321.336 348.256,320.738 348.100 C 320.147 347.945,319.965 348.020,320.161 348.337 C 320.349 348.642,320.097 348.800,319.424 348.800 C 318.861 348.800,318.400 348.958,318.400 349.151 C 318.400 349.345,317.862 349.726,317.205 349.998 C 316.548 350.270,316.107 350.650,316.226 350.842 C 316.344 351.034,316.180 351.091,315.861 350.968 C 315.542 350.846,315.160 350.941,315.013 351.179 C 314.865 351.418,314.577 351.509,314.372 351.383 C 314.168 351.256,314.000 351.343,314.000 351.576 C 314.000 351.809,313.730 352.000,313.400 352.000 C 313.070 352.000,312.800 352.136,312.800 352.303 C 312.800 352.634,309.976 353.600,309.006 353.600 C 308.673 353.600,308.400 353.780,308.400 354.000 C 308.400 354.220,307.961 354.400,307.424 354.400 C 306.887 354.400,306.336 354.580,306.200 354.800 C 306.064 355.020,305.378 355.203,304.676 355.206 C 303.705 355.211,303.543 355.305,304.000 355.600 C 304.452 355.892,304.261 355.989,303.228 355.994 C 301.894 356.000,299.679 356.559,298.338 357.229 C 297.974 357.410,296.839 357.603,295.815 357.656 C 294.791 357.709,293.863 357.898,293.753 358.076 C 293.643 358.254,292.674 358.400,291.600 358.400 C 290.526 358.400,289.536 358.580,289.400 358.800 C 289.236 359.065,259.063 359.200,200.176 359.200 C 141.125 359.200,111.200 359.065,111.200 358.800 C 111.200 358.578,110.133 358.400,108.800 358.400 C 107.467 358.400,106.400 358.222,106.400 358.000 C 106.400 357.780,105.421 357.600,104.224 357.600 C 103.027 357.600,101.936 357.420,101.800 357.200 C 101.664 356.980,100.923 356.800,100.153 356.800 C 99.383 356.800,98.841 356.657,98.949 356.483 C 99.056 356.309,98.579 356.123,97.888 356.070 C 97.197 356.018,96.534 355.845,96.416 355.687 C 96.297 355.529,95.750 355.350,95.200 355.288 C 94.650 355.227,94.140 355.002,94.067 354.788 C 93.993 354.575,93.532 354.400,93.042 354.400 C 92.551 354.400,91.405 354.040,90.494 353.600 C 89.584 353.160,88.650 352.800,88.419 352.800 C 88.189 352.800,88.000 352.609,88.000 352.375 C 88.000 352.141,87.595 352.006,87.100 352.075 C 86.545 352.152,86.238 352.009,86.300 351.700 C 86.362 351.389,85.947 351.200,85.200 351.200 C 84.540 351.200,84.000 351.020,84.000 350.800 C 84.000 350.580,83.730 350.400,83.400 350.400 C 83.070 350.400,82.800 350.201,82.800 349.957 C 82.800 349.714,82.541 349.614,82.226 349.735 C 81.673 349.947,79.841 348.789,78.993 347.692 C 78.769 347.402,78.057 347.109,77.412 347.040 C 76.766 346.971,76.169 346.708,76.085 346.455 C 76.001 346.202,75.767 346.097,75.566 346.221 C 75.365 346.345,75.200 346.167,75.200 345.824 C 75.200 345.481,74.975 345.245,74.700 345.300 C 74.425 345.355,74.236 345.201,74.281 344.957 C 74.326 344.712,73.936 344.561,73.409 344.619 C 72.409 344.729,71.788 343.877,72.275 343.064 C 72.428 342.809,72.251 342.845,71.882 343.145 C 71.161 343.729,69.200 343.471,69.200 342.792 C 69.200 342.540,60.151 342.400,43.839 342.400 L 18.478 342.400 18.069 343.575 " stroke="none" fill="#da8941" fill-rule="evenodd"></path><path id="path2" d="M162.017 149.420 C 162.452 149.944,162.397 150.076,161.666 150.267 C 161.190 150.391,160.800 150.742,160.800 151.047 C 160.800 151.766,160.908 151.747,161.945 150.848 C 162.797 150.109,162.774 148.800,161.908 148.800 C 161.680 148.800,161.728 149.072,162.017 149.420 M108.400 150.072 C 108.400 150.876,106.679 154.400,106.286 154.400 C 106.082 154.400,106.021 154.677,106.150 155.015 C 106.285 155.365,106.131 155.728,105.793 155.858 C 105.467 155.983,105.200 156.426,105.200 156.843 C 105.200 157.259,105.058 157.600,104.885 157.600 C 104.712 157.600,104.540 158.002,104.503 158.494 C 104.466 158.986,104.248 159.451,104.018 159.527 C 103.788 159.604,103.600 160.091,103.600 160.610 C 103.600 161.128,103.420 161.664,103.200 161.800 C 102.980 161.936,102.800 162.397,102.800 162.824 C 102.800 163.251,102.620 163.600,102.400 163.600 C 102.180 163.600,102.000 163.969,102.000 164.419 C 102.000 164.870,101.640 165.984,101.200 166.894 C 100.760 167.805,100.400 169.056,100.400 169.675 C 100.400 170.294,100.220 170.800,100.000 170.800 C 99.780 170.800,99.600 171.509,99.600 172.376 C 99.600 173.243,99.420 174.064,99.200 174.200 C 98.980 174.336,98.800 175.067,98.800 175.824 C 98.800 176.581,98.637 177.200,98.439 177.200 C 98.240 177.200,97.975 178.055,97.849 179.100 C 97.724 180.145,97.517 181.900,97.390 183.000 C 97.262 184.100,96.999 185.360,96.805 185.800 C 95.667 188.377,95.700 212.961,96.844 214.180 C 97.040 214.389,97.200 215.593,97.200 216.856 C 97.200 218.119,97.380 219.264,97.600 219.400 C 97.820 219.536,98.000 220.346,98.000 221.200 C 98.000 222.054,98.180 222.864,98.400 223.000 C 98.620 223.136,98.800 223.867,98.800 224.624 C 98.800 225.381,98.980 226.000,99.200 226.000 C 99.420 226.000,99.600 226.720,99.600 227.600 C 99.600 228.480,99.780 229.200,100.000 229.200 C 100.220 229.200,100.400 229.742,100.400 230.405 C 100.400 231.068,100.580 231.968,100.800 232.405 C 101.020 232.842,101.380 233.558,101.600 233.995 C 101.820 234.432,102.000 235.152,102.000 235.595 C 102.000 236.038,102.147 236.400,102.328 236.400 C 102.508 236.400,102.904 237.311,103.207 238.425 C 103.510 239.539,103.903 240.540,104.079 240.649 C 104.256 240.758,104.400 241.197,104.400 241.624 C 104.400 242.051,104.580 242.400,104.800 242.400 C 105.020 242.400,105.200 242.745,105.200 243.167 C 105.200 243.588,105.335 243.993,105.500 244.067 C 105.932 244.259,107.600 247.572,107.600 248.238 C 107.600 248.547,107.749 248.800,107.932 248.800 C 108.114 248.800,108.685 249.700,109.200 250.800 C 109.715 251.900,110.297 252.800,110.492 252.800 C 110.687 252.800,110.745 252.965,110.620 253.168 C 110.495 253.370,110.664 253.807,110.996 254.139 C 111.328 254.471,111.600 254.914,111.600 255.122 C 111.600 255.331,111.870 255.726,112.200 256.000 C 112.530 256.274,112.800 256.759,112.800 257.078 C 112.800 257.776,113.760 258.800,114.414 258.800 C 114.673 258.800,114.786 259.061,114.663 259.380 C 114.507 259.787,114.633 259.886,115.086 259.712 C 115.516 259.547,115.635 259.620,115.442 259.932 C 115.283 260.189,115.354 260.400,115.600 260.400 C 115.846 260.400,115.936 260.580,115.800 260.800 C 115.664 261.020,115.833 261.200,116.176 261.200 C 116.712 261.200,116.995 261.897,116.855 262.876 C 116.834 263.027,117.175 263.265,117.614 263.404 C 118.053 263.544,118.316 263.812,118.199 264.001 C 118.083 264.190,118.149 264.445,118.348 264.568 C 118.547 264.691,118.807 264.415,118.928 263.955 C 119.048 263.496,119.323 263.229,119.539 263.362 C 119.755 263.496,119.992 263.426,120.066 263.206 C 120.231 262.716,190.030 262.622,190.371 263.111 C 190.700 263.582,194.000 263.736,194.000 263.280 C 194.000 262.399,192.826 261.881,192.123 262.451 C 191.663 262.824,191.543 262.840,191.747 262.500 C 191.948 262.165,191.776 262.000,191.224 262.000 C 190.771 262.000,190.400 261.830,190.400 261.622 C 190.400 261.183,187.572 261.323,186.800 261.800 C 186.474 262.002,186.374 261.966,186.534 261.707 C 186.675 261.478,186.489 261.045,186.119 260.745 C 185.540 260.276,185.496 260.284,185.800 260.800 C 186.102 261.312,186.057 261.322,185.494 260.866 C 185.132 260.572,184.647 260.447,184.418 260.589 C 184.188 260.731,184.000 260.686,184.000 260.489 C 184.000 260.292,183.264 260.102,182.364 260.067 C 181.459 260.032,180.224 259.644,179.602 259.201 C 178.983 258.761,178.129 258.400,177.705 258.400 C 177.281 258.400,176.809 258.275,176.656 258.123 C 176.504 257.971,176.016 257.791,175.573 257.723 C 175.129 257.655,174.380 257.240,173.908 256.800 C 173.436 256.360,172.633 256.000,172.125 256.000 C 171.616 256.000,171.200 255.820,171.200 255.600 C 171.200 255.380,170.859 255.200,170.443 255.200 C 170.026 255.200,169.587 254.944,169.467 254.630 C 169.347 254.317,168.632 253.768,167.878 253.410 C 167.125 253.053,166.157 252.433,165.729 252.034 C 165.300 251.635,164.541 251.089,164.041 250.822 C 163.541 250.554,162.742 249.996,162.266 249.582 C 161.790 249.168,161.231 248.778,161.025 248.715 C 160.286 248.489,151.200 239.240,151.200 238.714 C 151.200 238.418,150.840 237.917,150.400 237.600 C 149.960 237.283,149.600 236.838,149.599 236.612 C 149.599 236.385,149.059 235.570,148.400 234.800 C 147.741 234.030,147.201 233.175,147.201 232.900 C 147.200 232.625,147.020 232.400,146.800 232.400 C 146.580 232.400,146.400 232.164,146.400 231.875 C 146.400 231.587,146.040 230.964,145.600 230.492 C 145.160 230.020,144.800 229.356,144.800 229.017 C 144.800 228.678,144.620 228.400,144.400 228.400 C 144.180 228.400,144.000 228.130,144.000 227.800 C 144.000 227.470,143.809 227.200,143.576 227.200 C 143.343 227.200,143.244 227.052,143.356 226.871 C 143.468 226.691,143.298 226.040,142.980 225.426 C 142.661 224.811,142.400 224.059,142.400 223.754 C 142.400 223.449,142.240 223.200,142.045 223.200 C 141.850 223.200,141.570 222.394,141.422 221.409 C 141.275 220.424,140.984 219.514,140.777 219.386 C 140.570 219.258,140.400 218.634,140.400 218.000 C 140.400 217.366,140.220 216.736,140.000 216.600 C 139.780 216.464,139.600 215.744,139.600 215.000 C 139.600 214.256,139.420 213.536,139.200 213.400 C 138.980 213.264,138.800 212.278,138.800 211.210 C 138.800 210.141,138.618 209.206,138.395 209.132 C 137.892 208.964,137.821 191.716,138.321 191.056 C 138.511 190.805,138.712 189.701,138.769 188.601 C 138.826 187.502,139.011 186.512,139.181 186.401 C 139.351 186.291,139.604 185.615,139.745 184.900 C 139.885 184.185,140.113 183.015,140.250 182.300 C 140.388 181.585,140.650 180.811,140.833 180.580 C 141.015 180.349,141.286 179.404,141.434 178.480 C 141.581 177.556,141.859 176.800,142.051 176.800 C 142.243 176.800,142.400 176.451,142.400 176.024 C 142.400 175.597,142.580 175.136,142.800 175.000 C 143.020 174.864,143.200 174.403,143.200 173.976 C 143.200 173.549,143.380 173.200,143.600 173.200 C 143.820 173.200,144.000 172.840,144.000 172.400 C 144.000 171.960,144.180 171.600,144.400 171.600 C 144.620 171.600,144.800 171.322,144.800 170.983 C 144.800 170.644,145.160 169.980,145.600 169.508 C 146.040 169.036,146.400 168.413,146.400 168.125 C 146.400 167.836,146.580 167.600,146.800 167.600 C 147.020 167.600,147.200 167.364,147.200 167.075 C 147.200 166.787,147.560 166.164,148.000 165.692 C 148.440 165.220,148.800 164.681,148.800 164.495 C 148.800 164.309,149.428 163.471,150.196 162.633 C 150.963 161.795,151.519 160.992,151.431 160.850 C 151.343 160.707,151.975 159.973,152.835 159.219 C 153.696 158.465,154.400 157.624,154.400 157.351 C 154.400 157.078,154.771 156.736,155.224 156.592 C 155.678 156.448,156.230 155.934,156.450 155.449 C 156.671 154.964,157.245 154.393,157.726 154.179 C 158.207 153.966,158.573 153.466,158.540 153.068 C 158.501 152.600,158.677 152.421,159.040 152.560 C 159.369 152.686,159.600 152.523,159.600 152.164 C 159.600 151.804,159.410 151.670,159.138 151.838 C 158.845 152.019,158.785 151.947,158.974 151.642 C 159.203 151.272,159.416 151.280,159.901 151.681 C 160.401 152.093,160.496 152.095,160.362 151.691 C 160.228 151.285,154.953 151.181,134.497 151.182 C 112.781 151.183,108.800 151.096,108.800 150.625 C 108.800 150.318,109.025 149.976,109.300 149.865 C 109.599 149.744,109.518 149.650,109.100 149.632 C 108.715 149.614,108.400 149.812,108.400 150.072 M359.324 208.600 C 359.332 241.160,359.442 266.672,359.569 265.293 C 359.696 263.914,359.935 262.789,360.100 262.793 C 360.265 262.797,369.310 262.800,380.200 262.800 L 400.000 262.800 400.000 207.000 L 400.000 151.200 379.828 151.200 L 359.656 151.200 359.482 150.300 C 359.387 149.805,359.316 176.040,359.324 208.600 M39.968 151.300 C 39.951 151.795,39.846 151.975,39.735 151.700 C 39.578 151.309,35.206 151.200,19.767 151.200 L 0.000 151.200 0.000 207.000 L 0.000 262.800 7.500 262.811 C 11.625 262.817,20.535 262.812,27.300 262.800 L 39.600 262.779 39.660 264.489 L 39.720 266.200 40.000 264.400 L 40.280 262.600 40.414 265.000 C 40.761 271.209,41.101 242.043,41.148 201.961 C 41.198 159.176,41.061 150.400,40.340 150.400 C 40.153 150.400,39.986 150.805,39.968 151.300 M238.000 150.688 C 238.000 151.181,240.355 152.103,240.991 151.859 C 241.354 151.720,241.484 151.837,241.351 152.183 C 241.017 153.055,244.170 156.589,244.888 156.146 C 245.132 155.995,245.210 156.060,245.066 156.293 C 244.925 156.522,245.617 157.552,246.604 158.583 C 247.592 159.614,248.400 160.618,248.400 160.815 C 248.400 161.012,249.030 161.803,249.800 162.573 C 250.570 163.343,251.200 164.183,251.200 164.440 C 251.200 164.696,251.515 165.197,251.900 165.553 C 252.285 165.909,253.037 167.010,253.570 168.000 C 254.104 168.990,254.644 169.890,254.770 170.000 C 255.250 170.417,256.000 172.015,256.000 172.618 C 256.000 172.964,256.180 173.136,256.400 173.000 C 256.620 172.864,256.800 173.118,256.800 173.564 C 256.800 174.011,257.160 175.017,257.600 175.800 C 258.040 176.583,258.400 177.568,258.400 177.989 C 258.400 178.409,258.580 178.864,258.800 179.000 C 259.020 179.136,259.200 179.597,259.200 180.024 C 259.200 180.451,259.354 180.800,259.543 180.800 C 259.732 180.800,260.000 181.888,260.139 183.218 C 260.278 184.549,260.552 185.944,260.748 186.318 C 260.944 186.693,261.207 187.857,261.332 188.905 C 261.456 189.952,261.676 191.000,261.820 191.232 C 262.227 191.891,262.075 208.826,261.657 209.341 C 261.453 209.594,261.184 210.610,261.060 211.600 C 260.552 215.636,259.833 219.200,259.526 219.200 C 259.347 219.200,259.200 219.549,259.200 219.976 C 259.200 220.403,259.020 220.864,258.800 221.000 C 258.580 221.136,258.400 221.687,258.400 222.224 C 258.400 222.761,258.220 223.200,258.000 223.200 C 257.780 223.200,257.600 223.543,257.600 223.962 C 257.600 224.778,255.999 228.112,255.500 228.333 C 255.335 228.407,255.200 228.812,255.200 229.233 C 255.200 229.655,255.042 230.000,254.849 230.000 C 254.655 230.000,254.273 230.540,254.000 231.200 C 253.727 231.860,253.345 232.400,253.151 232.400 C 252.958 232.400,252.800 232.636,252.800 232.925 C 252.800 233.213,252.440 233.836,252.000 234.308 C 251.560 234.780,251.200 235.372,251.200 235.623 C 251.200 235.874,250.660 236.583,250.000 237.200 C 249.340 237.817,248.800 238.525,248.800 238.774 C 248.800 239.023,248.170 239.857,247.400 240.627 C 246.630 241.397,246.000 242.201,246.000 242.413 C 246.000 242.626,245.834 242.800,245.631 242.800 C 245.150 242.800,242.800 245.150,242.800 245.631 C 242.800 245.834,242.649 246.000,242.464 246.000 C 242.279 246.000,241.371 246.742,240.446 247.649 C 239.521 248.555,238.658 249.192,238.529 249.063 C 238.400 248.934,237.796 249.362,237.187 250.014 C 236.578 250.666,235.857 251.200,235.585 251.200 C 235.314 251.200,234.685 251.639,234.188 252.175 C 233.691 252.712,233.165 253.032,233.020 252.887 C 232.875 252.742,232.631 252.798,232.478 253.012 C 231.955 253.742,229.633 255.200,228.993 255.200 C 228.641 255.200,228.464 255.380,228.600 255.600 C 228.736 255.820,228.549 256.000,228.185 256.000 C 227.821 256.000,227.021 256.358,226.406 256.796 C 225.791 257.233,224.954 257.647,224.544 257.715 C 224.135 257.783,223.440 258.031,223.000 258.266 C 222.560 258.500,221.991 258.617,221.737 258.525 C 221.482 258.433,221.156 258.547,221.013 258.779 C 220.870 259.010,220.403 259.200,219.976 259.200 C 219.549 259.200,219.200 259.380,219.200 259.600 C 219.200 259.820,218.559 260.000,217.776 260.000 C 216.982 260.000,216.456 260.167,216.587 260.379 C 216.718 260.590,216.431 260.683,215.940 260.589 C 215.456 260.495,214.786 260.640,214.453 260.909 C 213.952 261.315,213.908 261.296,214.200 260.800 C 214.599 260.124,213.298 260.994,212.706 261.800 C 212.533 262.035,212.407 261.953,212.400 261.600 C 212.389 261.067,212.345 261.067,212.000 261.600 C 211.670 262.110,211.611 262.113,211.606 261.620 C 211.601 261.169,211.493 261.147,211.120 261.520 C 210.540 262.100,209.854 262.160,210.200 261.600 C 210.530 261.066,210.293 261.095,209.040 261.746 C 208.432 262.061,207.219 262.227,206.167 262.140 C 205.082 262.049,204.440 262.141,204.580 262.367 C 204.713 262.583,204.337 262.684,203.707 262.601 C 203.098 262.521,202.600 262.420,202.600 262.377 C 202.600 262.040,200.535 262.193,200.300 262.547 C 200.083 262.874,199.917 262.878,199.700 262.561 C 199.259 261.915,197.874 262.034,197.313 262.765 C 196.945 263.244,196.822 263.266,196.813 262.857 C 196.805 262.541,196.549 262.411,196.200 262.545 C 195.870 262.671,195.600 262.601,195.600 262.387 C 195.600 262.174,195.240 262.000,194.800 262.000 C 194.360 262.000,194.000 262.180,194.000 262.400 C 194.000 262.620,194.191 262.800,194.424 262.800 C 194.657 262.800,194.761 262.940,194.655 263.112 C 194.400 263.523,197.257 263.492,197.900 263.076 C 198.183 262.893,198.400 262.927,198.400 263.153 C 198.400 263.556,199.657 263.459,200.402 262.999 C 200.621 262.864,200.800 262.931,200.800 263.149 C 200.800 263.579,202.352 263.524,203.089 263.068 C 203.340 262.914,203.649 262.955,203.776 263.161 C 204.061 263.623,207.193 263.530,207.962 263.037 C 208.360 262.781,208.436 262.819,208.222 263.165 C 207.888 263.705,209.225 263.636,209.629 263.092 C 209.754 262.922,225.585 262.789,244.807 262.796 C 279.579 262.808,280.908 262.855,280.167 264.053 C 280.068 264.214,280.182 264.465,280.420 264.612 C 280.708 264.790,280.622 265.133,280.164 265.640 C 279.248 266.652,279.782 266.618,280.800 265.600 C 281.296 265.104,281.410 264.790,281.100 264.773 C 280.825 264.758,280.974 264.564,281.432 264.342 C 281.889 264.120,282.596 263.367,283.001 262.669 C 283.407 261.971,284.157 261.004,284.669 260.519 C 285.181 260.035,285.600 259.450,285.600 259.219 C 285.600 258.989,285.780 258.800,286.000 258.800 C 286.220 258.800,286.414 258.395,286.432 257.900 C 286.449 257.405,286.557 257.234,286.672 257.521 C 286.870 258.016,287.989 256.404,288.630 254.700 C 288.775 254.315,289.052 254.000,289.247 254.000 C 289.441 254.000,289.600 253.539,289.600 252.976 C 289.600 252.413,289.745 252.042,289.921 252.151 C 290.098 252.261,290.593 251.553,291.021 250.579 C 291.450 249.605,291.935 248.806,292.100 248.804 C 292.265 248.802,292.400 248.440,292.400 248.000 C 292.400 247.560,292.580 247.200,292.800 247.200 C 293.020 247.200,293.200 246.947,293.200 246.638 C 293.200 245.972,294.868 242.659,295.300 242.467 C 295.465 242.393,295.600 241.988,295.600 241.567 C 295.600 241.145,295.780 240.800,296.000 240.800 C 296.220 240.800,296.400 240.361,296.400 239.824 C 296.400 239.287,296.580 238.736,296.800 238.600 C 297.020 238.464,297.200 237.913,297.200 237.376 C 297.200 236.839,297.380 236.400,297.600 236.400 C 297.820 236.400,298.000 235.961,298.000 235.424 C 298.000 234.887,298.180 234.336,298.400 234.200 C 298.620 234.064,298.800 233.524,298.800 233.000 C 298.800 232.476,298.980 231.936,299.200 231.800 C 299.420 231.664,299.600 231.023,299.600 230.376 C 299.600 229.729,299.780 229.200,300.000 229.200 C 300.220 229.200,300.400 228.581,300.400 227.824 C 300.400 227.067,300.560 226.348,300.756 226.227 C 301.099 226.015,301.378 224.789,301.856 221.400 C 301.980 220.520,302.244 219.629,302.441 219.420 C 302.638 219.211,302.800 217.996,302.800 216.720 C 302.800 215.444,302.968 214.400,303.174 214.400 C 304.299 214.400,304.299 186.965,303.173 185.820 C 302.968 185.611,302.800 184.407,302.800 183.144 C 302.800 181.881,302.620 180.736,302.400 180.600 C 302.180 180.464,302.000 179.643,302.000 178.776 C 302.000 177.909,301.820 177.200,301.600 177.200 C 301.380 177.200,301.200 176.491,301.200 175.624 C 301.200 174.757,301.020 173.936,300.800 173.800 C 300.580 173.664,300.400 173.034,300.400 172.400 C 300.400 171.766,300.220 171.136,300.000 171.000 C 299.780 170.864,299.600 170.221,299.600 169.571 C 299.600 168.921,299.441 168.077,299.247 167.695 C 299.052 167.313,298.671 166.460,298.400 165.800 C 298.129 165.140,297.748 164.287,297.553 163.905 C 297.359 163.523,297.200 162.848,297.200 162.405 C 297.200 161.962,297.020 161.600,296.800 161.600 C 296.580 161.600,296.400 161.049,296.400 160.376 C 296.400 159.663,296.233 159.256,296.000 159.400 C 295.611 159.640,295.438 159.117,295.570 158.100 C 295.606 157.825,295.447 157.600,295.218 157.600 C 294.988 157.600,294.800 157.240,294.800 156.800 C 294.800 156.360,294.665 155.999,294.500 155.997 C 294.141 155.993,293.200 154.056,293.200 153.320 C 293.200 153.034,293.020 152.800,292.800 152.800 C 292.580 152.800,292.400 152.440,292.400 152.000 C 292.400 151.560,292.175 151.194,291.900 151.187 C 291.625 151.179,280.105 151.185,266.300 151.199 C 250.812 151.216,241.200 151.081,241.200 150.848 C 241.200 150.438,240.187 150.480,239.759 150.908 C 239.614 151.053,239.158 150.992,238.747 150.772 C 238.336 150.552,238.000 150.514,238.000 150.688 M281.050 263.910 C 280.486 264.463,280.372 264.481,280.473 264.000 C 280.615 263.329,281.276 262.743,281.565 263.031 C 281.668 263.135,281.436 263.530,281.050 263.910 M119.200 266.014 C 119.200 266.587,120.047 266.913,120.461 266.499 C 120.717 266.243,120.566 266.032,120.026 265.891 C 119.572 265.772,119.200 265.827,119.200 266.014 " stroke="none" fill="#c22e65" fill-rule="evenodd"></path><path id="path3" d="M294.302 73.775 C 293.923 74.052,293.730 74.396,293.873 74.540 C 294.016 74.683,293.938 74.800,293.700 74.800 C 293.462 74.800,293.195 74.584,293.107 74.320 C 293.008 74.025,292.843 74.110,292.678 74.541 C 292.500 75.004,292.561 75.148,292.856 74.965 C 293.126 74.798,293.229 74.909,293.115 75.244 C 293.007 75.562,292.533 75.742,292.008 75.666 C 291.503 75.592,290.935 75.772,290.745 76.066 C 290.462 76.504,290.329 76.492,290.006 76.000 C 289.668 75.485,289.611 75.499,289.606 76.095 C 289.602 76.507,289.032 77.027,288.200 77.374 C 287.430 77.696,286.800 78.069,286.800 78.203 C 286.800 78.337,287.008 78.319,287.262 78.162 C 287.550 77.984,287.615 78.052,287.434 78.345 C 287.275 78.602,286.984 78.714,286.787 78.592 C 286.384 78.343,284.800 79.784,284.800 80.400 C 284.800 80.620,284.620 80.800,284.400 80.800 C 284.180 80.800,284.000 81.064,284.000 81.386 C 284.000 81.708,283.675 82.146,283.277 82.359 C 282.879 82.572,282.131 83.568,281.614 84.573 C 281.097 85.578,280.562 86.400,280.424 86.400 C 280.287 86.400,280.134 86.895,280.084 87.500 C 280.034 88.105,279.815 88.660,279.597 88.733 C 279.378 88.807,279.200 89.314,279.200 89.860 C 279.200 90.406,279.017 91.194,278.794 91.611 C 276.984 94.993,279.510 108.575,282.526 111.684 C 282.801 111.968,283.464 112.830,284.000 113.600 C 285.211 115.342,285.464 115.594,287.200 116.794 C 287.970 117.327,288.891 118.086,289.247 118.481 C 289.603 118.876,290.188 119.200,290.547 119.200 C 290.906 119.200,291.200 119.380,291.200 119.600 C 291.200 119.820,291.560 120.000,292.000 120.000 C 292.440 120.000,292.800 120.180,292.800 120.400 C 292.800 120.620,293.149 120.800,293.576 120.800 C 294.003 120.800,294.464 120.980,294.600 121.200 C 294.736 121.420,295.251 121.600,295.744 121.600 C 296.237 121.600,296.811 121.763,297.020 121.963 C 298.087 122.983,309.603 122.967,310.234 121.944 C 310.351 121.755,310.829 121.600,311.296 121.600 C 312.332 121.600,316.000 119.985,316.000 119.529 C 316.000 119.348,316.360 119.200,316.800 119.200 C 317.240 119.200,317.600 119.059,317.600 118.886 C 317.600 118.714,318.150 118.247,318.823 117.850 C 320.740 116.718,324.072 113.158,324.885 111.373 C 325.129 110.838,325.480 110.400,325.664 110.400 C 325.849 110.400,326.000 110.040,326.000 109.600 C 326.000 109.160,326.180 108.800,326.400 108.800 C 326.620 108.800,326.800 108.451,326.800 108.024 C 326.800 107.597,326.980 107.136,327.200 107.000 C 327.420 106.864,327.600 106.234,327.600 105.600 C 327.600 104.966,327.780 104.336,328.000 104.200 C 328.220 104.064,328.400 103.153,328.400 102.176 C 328.400 101.199,328.580 100.400,328.800 100.400 C 329.031 100.400,329.200 99.133,329.200 97.400 C 329.200 95.667,329.031 94.400,328.800 94.400 C 328.580 94.400,328.400 93.500,328.400 92.400 C 328.400 91.300,328.220 90.400,328.000 90.400 C 327.780 90.400,327.600 89.871,327.600 89.224 C 327.600 88.577,327.420 87.936,327.200 87.800 C 326.980 87.664,326.800 87.203,326.800 86.776 C 326.800 86.349,326.656 86.000,326.480 86.000 C 326.305 86.000,325.937 85.381,325.663 84.624 C 325.389 83.867,324.633 82.678,323.983 81.981 C 323.332 81.285,322.800 80.561,322.800 80.373 C 322.800 79.871,321.127 78.398,320.792 78.605 C 320.635 78.702,320.098 78.250,319.600 77.600 C 319.102 76.950,318.537 76.515,318.344 76.634 C 318.152 76.753,317.887 76.570,317.755 76.228 C 317.624 75.885,317.328 75.721,317.097 75.863 C 316.867 76.006,316.425 75.780,316.115 75.361 C 315.596 74.662,315.511 74.654,315.062 75.258 C 314.531 75.973,313.200 75.400,313.200 74.456 C 313.200 74.205,313.026 74.000,312.813 74.000 C 312.599 74.000,312.526 74.315,312.650 74.700 C 312.803 75.174,312.761 75.242,312.520 74.910 C 312.325 74.641,311.723 74.339,311.183 74.240 C 310.642 74.141,310.110 74.036,310.000 74.008 C 309.890 73.979,307.668 73.975,305.063 73.999 C 301.839 74.028,300.410 73.908,300.587 73.621 C 300.730 73.390,300.657 73.200,300.424 73.200 C 300.191 73.200,300.000 73.350,300.000 73.533 C 300.000 73.717,299.775 73.868,299.500 73.870 C 299.225 73.873,298.595 74.005,298.100 74.164 C 297.590 74.328,297.200 74.287,297.200 74.070 C 297.200 73.858,296.932 73.583,296.605 73.457 C 296.277 73.332,296.029 73.357,296.052 73.514 C 296.170 74.307,295.956 74.820,295.600 74.600 C 295.380 74.464,295.200 74.573,295.200 74.843 C 295.200 75.113,295.084 75.218,294.943 75.076 C 294.802 74.935,294.900 74.561,295.162 74.245 C 295.797 73.480,295.172 73.139,294.302 73.775 M31.478 73.903 C 15.329 73.978,9.232 74.129,9.430 74.448 C 9.580 74.691,9.459 75.040,9.162 75.224 C 8.836 75.425,8.502 75.367,8.323 75.079 C 8.139 74.784,7.923 75.099,7.762 75.900 C 7.618 76.615,7.343 77.200,7.150 77.200 C 6.958 77.200,6.800 77.740,6.800 78.400 C 6.800 79.060,6.665 79.601,6.500 79.603 C 6.099 79.607,5.200 81.581,5.200 82.456 C 5.200 82.839,5.020 83.264,4.800 83.400 C 4.580 83.536,4.400 84.166,4.400 84.800 C 4.400 85.434,4.220 86.064,4.000 86.200 C 3.780 86.336,3.600 87.056,3.600 87.800 C 3.600 88.544,3.420 89.264,3.200 89.400 C 2.980 89.536,2.800 90.256,2.800 91.000 C 2.800 91.744,2.620 92.464,2.400 92.600 C 2.180 92.736,2.000 93.456,2.000 94.200 C 2.000 94.944,1.820 95.664,1.600 95.800 C 1.380 95.936,1.200 96.991,1.200 98.144 C 1.200 99.297,0.975 100.465,0.700 100.740 C 0.314 101.126,0.170 106.915,0.066 126.220 L -0.067 151.200 19.733 151.200 C 35.199 151.200,39.577 151.309,39.735 151.700 C 39.846 151.975,39.951 151.795,39.968 151.300 C 40.040 149.251,40.806 150.594,40.881 152.900 C 40.925 154.275,41.060 144.474,41.181 131.120 C 41.349 112.469,41.516 106.724,41.900 106.340 C 42.175 106.065,42.400 104.976,42.400 103.920 C 42.400 102.864,42.560 102.000,42.756 102.000 C 42.952 102.000,43.222 101.370,43.356 100.600 C 43.490 99.830,43.710 98.568,43.844 97.796 C 43.979 97.024,44.249 96.294,44.444 96.173 C 44.640 96.052,44.800 95.513,44.800 94.976 C 44.800 94.439,44.980 94.000,45.200 94.000 C 45.420 94.000,45.600 93.460,45.600 92.800 C 45.600 92.140,45.780 91.600,46.000 91.600 C 46.220 91.600,46.400 91.240,46.400 90.800 C 46.400 90.360,46.580 90.000,46.800 90.000 C 47.020 90.000,47.200 89.676,47.200 89.280 C 47.200 88.386,48.094 86.407,48.500 86.403 C 48.665 86.401,48.800 86.040,48.800 85.600 C 48.800 85.160,48.980 84.800,49.200 84.800 C 49.420 84.800,49.600 84.350,49.600 83.800 C 49.600 83.250,49.780 82.800,50.000 82.800 C 50.220 82.800,50.400 82.517,50.400 82.171 C 50.400 81.826,50.625 81.306,50.900 81.016 C 52.248 79.596,52.607 78.895,52.604 77.693 C 52.601 76.646,52.688 76.505,53.039 76.986 C 53.412 77.496,53.545 77.439,53.925 76.605 C 54.294 75.795,54.253 75.555,53.686 75.224 C 53.035 74.845,53.608 74.598,54.833 74.730 C 54.962 74.744,55.067 74.498,55.067 74.184 C 55.067 73.776,54.926 73.730,54.572 74.023 C 54.300 74.249,54.015 74.291,53.939 74.117 C 53.863 73.943,43.755 73.847,31.478 73.903 M346.300 74.276 C 345.915 74.376,345.600 74.835,345.600 75.296 C 345.600 75.757,345.711 76.022,345.848 75.886 C 346.208 75.525,347.176 76.608,347.316 77.530 C 347.383 77.966,347.614 78.565,347.830 78.861 C 348.046 79.157,348.937 80.840,349.811 82.600 C 350.685 84.360,351.535 85.860,351.700 85.933 C 351.865 86.007,352.000 86.324,352.000 86.639 C 352.000 87.195,352.173 87.628,353.138 89.495 C 353.392 89.987,353.600 90.662,353.600 90.995 C 353.600 91.328,353.780 91.600,354.000 91.600 C 354.220 91.600,354.400 92.039,354.400 92.576 C 354.400 93.113,354.580 93.664,354.800 93.800 C 355.020 93.936,355.200 94.476,355.200 95.000 C 355.200 95.524,355.380 96.064,355.600 96.200 C 355.820 96.336,356.000 97.056,356.000 97.800 C 356.000 98.544,356.180 99.264,356.400 99.400 C 356.620 99.536,356.800 100.177,356.800 100.824 C 356.800 101.471,356.980 102.000,357.200 102.000 C 357.420 102.000,357.600 102.889,357.600 103.976 C 357.600 105.063,357.780 106.064,358.000 106.200 C 358.220 106.336,358.400 107.517,358.400 108.824 C 358.400 110.141,358.578 111.200,358.800 111.200 C 359.061 111.200,359.200 117.717,359.200 129.950 C 359.200 140.263,359.313 149.263,359.450 149.950 L 359.700 151.200 379.884 151.200 L 400.067 151.200 399.934 126.133 C 399.829 106.531,399.691 101.030,399.300 100.900 C 398.976 100.792,398.800 99.909,398.800 98.390 C 398.800 97.102,398.620 95.936,398.400 95.800 C 398.180 95.664,398.000 94.843,398.000 93.976 C 398.000 93.109,397.820 92.400,397.600 92.400 C 397.380 92.400,397.200 91.781,397.200 91.024 C 397.200 90.267,397.020 89.536,396.800 89.400 C 396.580 89.264,396.400 88.702,396.400 88.150 C 396.400 87.599,396.224 86.819,396.010 86.418 C 395.795 86.017,395.577 85.129,395.525 84.445 C 395.473 83.760,395.288 83.200,395.115 83.200 C 394.942 83.200,394.800 82.675,394.800 82.033 C 394.800 81.392,394.612 80.804,394.382 80.727 C 394.152 80.651,393.934 80.186,393.897 79.694 C 393.860 79.202,393.688 78.800,393.515 78.800 C 393.342 78.800,393.200 78.455,393.200 78.033 C 393.200 77.612,393.025 77.207,392.812 77.133 C 392.598 77.060,392.356 76.550,392.274 76.000 C 392.176 75.343,391.828 74.956,391.262 74.872 C 390.788 74.802,390.400 74.577,390.400 74.372 C 390.400 74.001,347.710 73.907,346.300 74.276 M194.400 96.042 C 193.850 96.195,191.771 96.338,189.780 96.360 C 187.789 96.382,185.989 96.564,185.780 96.765 C 185.571 96.965,184.410 97.230,183.200 97.352 C 178.818 97.794,177.200 98.087,177.200 98.440 C 177.200 98.638,176.480 98.800,175.600 98.800 C 174.720 98.800,174.000 98.980,174.000 99.200 C 174.000 99.420,173.280 99.600,172.400 99.600 C 171.520 99.600,170.800 99.780,170.800 100.000 C 170.800 100.220,170.348 100.400,169.795 100.400 C 169.242 100.400,168.432 100.580,167.995 100.800 C 167.558 101.020,166.842 101.380,166.405 101.600 C 165.968 101.820,165.259 102.000,164.829 102.000 C 164.399 102.000,163.936 102.180,163.800 102.400 C 163.664 102.620,163.113 102.800,162.576 102.800 C 162.039 102.800,161.600 102.980,161.600 103.200 C 161.600 103.420,161.285 103.605,160.900 103.610 C 160.515 103.616,158.762 104.336,157.004 105.210 C 155.247 106.085,153.582 106.800,153.304 106.800 C 153.027 106.800,152.800 106.980,152.800 107.200 C 152.800 107.420,152.440 107.600,152.000 107.600 C 151.560 107.600,151.200 107.780,151.200 108.000 C 151.200 108.220,150.840 108.400,150.400 108.400 C 149.960 108.400,149.600 108.580,149.600 108.800 C 149.600 109.020,149.330 109.200,149.000 109.200 C 148.670 109.200,148.400 109.380,148.400 109.600 C 148.400 109.820,148.211 110.000,147.981 110.000 C 147.750 110.000,146.577 110.630,145.373 111.400 C 144.169 112.170,143.000 112.800,142.774 112.800 C 142.548 112.800,141.914 113.250,141.364 113.800 C 140.814 114.350,140.237 114.803,140.082 114.808 C 139.927 114.812,139.082 115.442,138.204 116.208 C 137.327 116.973,136.464 117.600,136.286 117.600 C 136.109 117.600,135.546 118.005,135.035 118.500 C 134.524 118.995,133.407 119.969,132.553 120.665 C 131.699 121.360,130.239 122.710,129.310 123.665 C 125.984 127.080,125.646 127.414,124.431 128.494 C 123.754 129.095,123.200 129.654,123.200 129.736 C 123.200 129.817,122.435 130.691,121.500 131.678 C 119.526 133.761,118.400 135.120,118.400 135.421 C 118.400 135.664,118.163 135.977,116.297 138.200 C 114.748 140.046,112.400 143.582,112.400 144.069 C 112.400 144.251,112.040 144.760,111.600 145.200 C 111.160 145.640,110.800 146.270,110.800 146.600 C 110.800 146.930,110.599 147.200,110.353 147.200 C 110.090 147.200,109.987 147.620,110.102 148.223 C 110.253 149.009,110.160 149.194,109.704 149.019 C 109.295 148.862,109.183 148.978,109.343 149.395 C 109.471 149.728,109.422 150.000,109.234 150.000 C 109.047 150.000,108.794 150.378,108.674 150.840 C 108.553 151.302,108.264 151.563,108.032 151.419 C 107.764 151.254,107.708 151.416,107.878 151.859 C 108.045 152.293,108.208 152.376,108.308 152.077 C 108.396 151.812,108.661 151.714,108.896 151.859 C 109.149 152.016,109.207 151.935,109.038 151.662 C 108.881 151.408,108.943 151.198,109.176 151.195 C 119.996 151.078,160.157 151.250,160.423 151.414 C 160.631 151.542,160.800 151.388,160.800 151.070 C 160.800 150.753,161.190 150.391,161.666 150.267 C 162.397 150.076,162.452 149.944,162.017 149.420 C 161.669 149.001,161.647 148.800,161.951 148.800 C 162.198 148.800,162.400 148.980,162.400 149.200 C 162.400 149.420,162.670 149.600,163.000 149.600 C 163.330 149.600,163.600 149.420,163.600 149.200 C 163.600 148.980,163.836 148.800,164.125 148.800 C 164.413 148.800,164.998 148.475,165.425 148.078 C 165.851 147.680,166.772 147.102,167.471 146.793 C 168.170 146.483,168.655 146.088,168.548 145.915 C 168.440 145.742,168.723 145.600,169.176 145.600 C 169.629 145.600,170.000 145.420,170.000 145.200 C 170.000 144.980,170.360 144.800,170.800 144.800 C 171.240 144.800,171.600 144.620,171.600 144.400 C 171.600 144.180,171.971 144.000,172.424 144.000 C 172.877 144.000,173.136 143.820,173.000 143.600 C 172.864 143.380,173.028 143.200,173.364 143.200 C 173.701 143.200,174.617 142.840,175.400 142.400 C 176.183 141.960,177.269 141.600,177.812 141.600 C 178.355 141.600,178.800 141.409,178.800 141.176 C 178.800 140.943,178.954 140.848,179.141 140.964 C 179.481 141.174,181.568 140.608,182.895 139.946 C 183.277 139.756,184.053 139.600,184.621 139.600 C 185.188 139.600,185.966 139.432,186.348 139.228 C 186.731 139.023,187.759 138.789,188.632 138.707 C 189.504 138.626,190.469 138.405,190.775 138.216 C 191.655 137.672,208.040 137.774,209.074 138.330 C 209.554 138.589,210.531 138.800,211.245 138.800 C 211.959 138.800,213.096 138.975,213.772 139.190 C 214.447 139.404,216.080 139.851,217.400 140.182 C 222.200 141.387,223.618 141.849,223.345 142.122 C 223.192 142.275,223.431 142.400,223.877 142.400 C 224.601 142.400,229.498 144.656,230.000 145.220 C 230.110 145.344,230.783 145.681,231.495 145.969 C 232.207 146.257,232.689 146.656,232.565 146.856 C 232.442 147.056,232.489 147.194,232.670 147.163 C 233.395 147.037,233.850 147.244,234.977 148.214 C 235.625 148.770,236.388 149.137,236.673 149.027 C 236.957 148.918,237.148 149.019,237.095 149.252 C 237.043 149.484,237.676 150.111,238.502 150.645 C 239.329 151.178,239.959 151.410,239.902 151.161 C 239.846 150.911,240.115 150.653,240.500 150.589 C 240.885 150.524,241.200 150.639,241.200 150.844 C 241.200 151.071,250.936 151.207,266.066 151.191 C 284.405 151.172,291.006 151.286,291.216 151.625 C 291.372 151.878,291.500 151.581,291.500 150.964 C 291.500 149.758,290.644 148.602,290.031 148.981 C 289.824 149.109,289.525 149.002,289.366 148.745 C 289.192 148.463,289.249 148.383,289.511 148.545 C 290.200 148.971,290.454 148.143,289.800 147.600 C 289.475 147.330,289.291 146.977,289.391 146.815 C 289.491 146.653,289.219 146.141,288.786 145.677 C 288.354 145.213,288.000 144.556,288.000 144.217 C 288.000 143.878,287.842 143.600,287.649 143.600 C 287.455 143.600,287.073 143.060,286.800 142.400 C 286.527 141.740,286.175 141.200,286.019 141.200 C 285.863 141.200,285.480 140.721,285.168 140.137 C 284.855 139.552,284.105 138.543,283.500 137.894 C 282.895 137.246,282.400 136.546,282.400 136.340 C 282.400 136.133,281.995 135.546,281.500 135.035 C 281.005 134.524,279.970 133.327,279.200 132.376 C 277.273 129.996,266.411 119.200,265.943 119.200 C 265.734 119.200,265.114 118.750,264.564 118.200 C 264.014 117.650,263.416 117.200,263.236 117.200 C 263.056 117.200,262.299 116.663,261.554 116.006 C 260.809 115.350,260.093 114.810,259.962 114.806 C 259.831 114.803,259.201 114.350,258.562 113.800 C 257.923 113.251,257.252 112.801,257.072 112.800 C 256.892 112.800,255.992 112.286,255.072 111.659 C 254.152 111.031,252.725 110.200,251.900 109.813 C 251.075 109.426,250.400 108.949,250.400 108.754 C 250.400 108.559,250.040 108.400,249.600 108.400 C 249.160 108.400,248.800 108.220,248.800 108.000 C 248.800 107.780,248.440 107.600,248.000 107.600 C 247.560 107.600,247.200 107.420,247.200 107.200 C 247.200 106.980,246.840 106.800,246.400 106.800 C 245.960 106.800,245.600 106.620,245.600 106.400 C 245.600 106.180,245.240 106.000,244.800 106.000 C 244.360 106.000,244.000 105.820,244.000 105.600 C 244.000 105.380,243.640 105.200,243.200 105.200 C 242.760 105.200,242.400 105.020,242.400 104.800 C 242.400 104.580,242.040 104.400,241.600 104.400 C 241.160 104.400,240.800 104.220,240.800 104.000 C 240.800 103.780,240.260 103.600,239.600 103.600 C 238.940 103.600,238.400 103.420,238.400 103.200 C 238.400 102.980,237.961 102.800,237.424 102.800 C 236.887 102.800,236.336 102.620,236.200 102.400 C 236.064 102.180,235.513 102.000,234.976 102.000 C 234.439 102.000,234.000 101.820,234.000 101.600 C 234.000 101.380,233.550 101.200,233.000 101.200 C 232.450 101.200,232.000 101.020,232.000 100.800 C 232.000 100.580,231.381 100.400,230.624 100.400 C 229.867 100.400,229.136 100.220,229.000 100.000 C 228.864 99.780,228.133 99.600,227.376 99.600 C 226.619 99.600,226.000 99.420,226.000 99.200 C 226.000 98.980,225.370 98.800,224.600 98.800 C 223.830 98.800,223.200 98.637,223.200 98.439 C 223.200 98.092,221.684 97.839,216.700 97.353 C 215.435 97.230,214.400 96.987,214.400 96.813 C 214.400 96.639,212.660 96.467,210.534 96.431 C 208.408 96.395,206.488 96.254,206.267 96.118 C 205.703 95.769,195.611 95.704,194.400 96.042 " stroke="none" fill="#ac1c8a" fill-rule="evenodd"></path><path id="path4" d="M40.733 258.100 C 40.695 263.340,40.556 266.352,40.414 265.000 L 40.163 262.600 39.951 264.400 L 39.740 266.200 39.670 264.501 L 39.600 262.802 19.757 262.808 L -0.086 262.813 0.057 281.073 C 0.168 295.223,0.313 299.371,0.700 299.500 C 1.024 299.608,1.200 300.491,1.200 302.010 C 1.200 303.298,1.380 304.464,1.600 304.600 C 1.820 304.736,2.000 305.456,2.000 306.200 C 2.000 306.944,2.180 307.664,2.400 307.800 C 2.620 307.936,2.800 308.667,2.800 309.424 C 2.800 310.181,2.980 310.800,3.200 310.800 C 3.420 310.800,3.600 311.509,3.600 312.376 C 3.600 313.243,3.780 314.064,4.000 314.200 C 4.220 314.336,4.400 314.977,4.400 315.624 C 4.400 316.271,4.580 316.800,4.800 316.800 C 5.020 316.800,5.200 317.239,5.200 317.776 C 5.200 318.313,5.380 318.864,5.600 319.000 C 5.820 319.136,6.000 319.599,6.000 320.029 C 6.000 320.784,6.144 321.174,7.138 323.095 C 7.392 323.587,7.600 324.262,7.600 324.595 C 7.600 324.928,7.780 325.200,8.000 325.200 C 8.220 325.200,8.400 325.740,8.400 326.400 C 8.400 327.060,8.538 327.600,8.706 327.600 C 9.028 327.600,10.400 330.521,10.400 331.208 C 10.400 331.692,11.213 333.165,11.883 333.896 C 12.149 334.186,12.264 334.688,12.140 335.012 C 12.016 335.335,12.114 335.600,12.357 335.600 C 12.601 335.600,12.800 335.960,12.800 336.400 C 12.800 336.840,12.980 337.200,13.200 337.200 C 13.420 337.200,13.600 337.560,13.600 338.000 C 13.600 338.440,13.759 338.800,13.953 338.800 C 14.148 338.800,14.404 339.173,14.524 339.630 C 14.643 340.086,15.114 340.557,15.570 340.676 C 16.039 340.799,16.400 341.221,16.400 341.647 C 16.400 342.085,16.692 342.413,17.100 342.432 C 17.518 342.450,17.599 342.544,17.300 342.665 C 16.532 342.975,16.702 343.607,17.782 344.457 C 18.351 344.905,18.669 345.476,18.539 345.815 C 18.415 346.137,18.514 346.400,18.757 346.400 C 19.398 346.400,19.301 345.574,18.564 344.760 C 18.170 344.324,18.028 343.742,18.191 343.229 C 18.553 342.088,68.357 341.899,69.492 343.035 C 69.851 343.393,70.529 343.592,71.054 343.492 C 71.716 343.365,72.053 343.536,72.228 344.087 C 72.363 344.512,72.577 344.756,72.705 344.629 C 72.832 344.501,73.346 344.666,73.847 344.994 C 74.411 345.363,74.852 345.440,75.003 345.196 C 75.137 344.978,74.967 344.800,74.624 344.800 C 74.281 344.800,73.999 344.665,73.997 344.500 C 73.994 344.044,71.475 342.644,70.860 342.755 C 70.563 342.809,70.426 342.682,70.556 342.472 C 70.685 342.262,70.478 342.115,70.096 342.145 C 69.662 342.179,69.353 341.869,69.275 341.322 C 69.187 340.703,68.961 340.517,68.509 340.690 C 68.086 340.853,67.966 340.779,68.156 340.471 C 68.463 339.974,66.737 338.000,65.995 338.000 C 65.752 338.000,65.640 337.858,65.748 337.685 C 65.855 337.512,65.445 337.149,64.836 336.880 C 64.228 336.611,63.476 335.900,63.165 335.301 C 62.854 334.702,61.700 333.275,60.600 332.130 C 58.027 329.452,57.600 328.924,57.600 328.420 C 57.600 328.193,57.240 327.782,56.800 327.507 C 56.360 327.232,56.000 326.770,56.000 326.480 C 56.000 326.190,55.865 326.036,55.700 326.138 C 55.535 326.240,54.959 325.441,54.421 324.362 C 53.883 323.283,53.298 322.400,53.121 322.400 C 52.945 322.400,52.800 322.055,52.800 321.633 C 52.800 321.212,52.658 320.807,52.486 320.733 C 51.920 320.494,50.400 318.092,50.400 317.438 C 50.400 317.087,50.220 316.800,50.000 316.800 C 49.780 316.800,49.600 316.530,49.600 316.200 C 49.600 315.870,49.420 315.600,49.200 315.600 C 48.980 315.600,48.800 315.251,48.800 314.824 C 48.800 314.397,48.620 313.936,48.400 313.800 C 48.180 313.664,48.000 313.193,48.000 312.753 C 48.000 312.313,47.820 312.064,47.600 312.200 C 47.367 312.344,47.200 311.937,47.200 311.224 C 47.200 310.551,47.020 310.000,46.800 310.000 C 46.580 310.000,46.400 309.640,46.400 309.200 C 46.400 308.760,46.220 308.400,46.000 308.400 C 45.780 308.400,45.600 307.860,45.600 307.200 C 45.600 306.540,45.420 306.000,45.200 306.000 C 44.980 306.000,44.800 305.586,44.800 305.080 C 44.800 304.574,44.629 303.989,44.419 303.779 C 44.210 303.570,43.993 302.724,43.937 301.899 C 43.882 301.075,43.693 300.400,43.518 300.400 C 43.343 300.400,43.200 299.871,43.200 299.224 C 43.200 298.577,43.020 297.936,42.800 297.800 C 42.580 297.664,42.400 296.854,42.400 296.000 C 42.400 295.146,42.247 294.353,42.061 294.238 C 41.446 293.857,41.172 285.244,41.193 266.900 C 41.204 256.945,41.120 248.800,41.006 248.800 C 40.893 248.800,40.770 252.985,40.733 258.100 M114.414 259.084 C 114.451 259.897,115.505 261.277,115.767 260.854 C 115.921 260.604,115.846 260.400,115.600 260.400 C 115.354 260.400,115.235 260.265,115.334 260.100 C 115.434 259.935,115.265 259.568,114.958 259.284 C 114.651 259.001,114.406 258.911,114.414 259.084 M185.397 260.730 C 185.545 260.879,185.877 261.008,186.133 261.018 C 186.390 261.028,186.557 261.247,186.505 261.504 C 186.448 261.780,186.671 261.871,187.049 261.726 C 187.610 261.511,187.597 261.429,186.944 261.056 C 186.079 260.562,185.001 260.335,185.397 260.730 M193.520 262.480 C 193.784 262.744,194.000 263.118,194.000 263.311 C 194.000 263.745,190.686 263.563,190.371 263.111 C 190.010 262.594,120.297 262.720,119.976 263.238 C 119.595 263.855,119.399 263.863,118.712 263.293 C 117.887 262.608,116.639 263.058,117.318 263.796 C 117.685 264.195,117.936 264.210,118.369 263.860 C 118.839 263.481,118.897 263.563,118.699 264.332 C 118.515 265.045,118.597 265.210,119.050 265.036 C 119.386 264.907,119.535 264.982,119.395 265.208 C 119.260 265.427,119.551 265.756,120.043 265.938 C 120.632 266.156,120.777 266.367,120.468 266.558 C 119.807 266.967,119.887 267.600,120.600 267.600 C 120.930 267.600,121.200 267.799,121.200 268.043 C 121.200 268.286,121.461 268.386,121.780 268.263 C 122.167 268.115,122.285 268.233,122.137 268.620 C 122.014 268.939,122.124 269.200,122.381 269.200 C 122.637 269.200,122.783 269.335,122.704 269.500 C 122.626 269.665,123.155 270.391,123.881 271.112 C 124.606 271.834,125.203 272.284,125.206 272.112 C 125.209 271.941,125.449 272.250,125.739 272.800 C 126.028 273.350,126.476 273.755,126.733 273.700 C 126.990 273.645,127.155 273.818,127.100 274.085 C 127.045 274.352,127.407 274.756,127.904 274.982 C 128.401 275.208,128.909 275.712,129.032 276.102 C 129.156 276.492,129.398 276.725,129.569 276.619 C 129.740 276.514,130.117 276.871,130.407 277.414 C 130.698 277.956,131.185 278.400,131.491 278.400 C 131.797 278.400,131.965 278.535,131.866 278.700 C 131.691 278.989,132.760 280.200,133.190 280.200 C 133.306 280.200,133.348 280.357,133.284 280.549 C 133.220 280.741,133.428 280.798,133.747 280.676 C 134.083 280.547,134.637 280.864,135.059 281.426 C 135.461 281.962,136.028 282.400,136.319 282.400 C 136.616 282.400,136.723 282.602,136.562 282.862 C 136.390 283.139,136.452 283.215,136.715 283.052 C 136.957 282.903,137.760 283.370,138.499 284.091 C 139.239 284.811,140.093 285.456,140.397 285.525 C 140.701 285.594,141.252 285.999,141.622 286.425 C 141.991 286.851,142.588 287.200,142.947 287.200 C 143.306 287.200,143.600 287.380,143.600 287.600 C 143.600 287.820,143.870 288.000,144.200 288.000 C 144.530 288.000,144.800 288.150,144.800 288.332 C 144.800 288.515,145.295 288.916,145.900 289.223 C 146.505 289.531,147.671 290.191,148.492 290.691 C 149.313 291.191,150.258 291.600,150.592 291.600 C 150.926 291.600,151.200 291.780,151.200 292.000 C 151.200 292.220,151.560 292.400,152.000 292.400 C 152.440 292.400,152.800 292.580,152.800 292.800 C 152.800 293.020,153.160 293.200,153.600 293.200 C 154.040 293.200,154.400 293.380,154.400 293.600 C 154.400 293.820,154.760 294.000,155.200 294.000 C 155.640 294.000,156.000 294.180,156.000 294.400 C 156.000 294.620,156.253 294.800,156.562 294.800 C 157.047 294.800,158.320 295.352,161.295 296.850 C 161.677 297.043,162.341 297.200,162.771 297.200 C 163.201 297.200,163.664 297.380,163.800 297.600 C 163.936 297.820,164.487 298.000,165.024 298.000 C 165.561 298.000,166.000 298.180,166.000 298.400 C 166.000 298.620,166.461 298.800,167.024 298.800 C 167.604 298.800,167.940 298.973,167.800 299.200 C 167.653 299.438,168.121 299.600,168.953 299.600 C 169.723 299.600,170.464 299.780,170.600 300.000 C 170.736 300.220,171.456 300.400,172.200 300.400 C 172.944 300.400,173.664 300.580,173.800 300.800 C 173.936 301.020,174.566 301.200,175.200 301.200 C 175.834 301.200,176.464 301.380,176.600 301.600 C 176.736 301.820,177.647 302.000,178.624 302.000 C 179.601 302.000,180.400 302.149,180.400 302.332 C 180.400 302.514,181.421 302.704,182.670 302.755 C 183.918 302.805,185.257 303.016,185.644 303.223 C 186.031 303.431,187.969 303.600,189.950 303.600 C 191.932 303.600,193.649 303.756,193.766 303.946 C 194.054 304.412,205.933 304.432,206.220 303.967 C 206.345 303.765,208.226 303.600,210.400 303.600 C 212.604 303.600,214.462 303.423,214.600 303.200 C 214.736 302.980,215.906 302.800,217.200 302.800 C 218.494 302.800,219.664 302.620,219.800 302.400 C 219.936 302.180,220.746 302.000,221.600 302.000 C 222.454 302.000,223.264 301.820,223.400 301.600 C 223.536 301.380,224.177 301.200,224.824 301.200 C 225.471 301.200,226.000 301.057,226.000 300.882 C 226.000 300.707,226.675 300.518,227.499 300.463 C 228.324 300.407,229.170 300.190,229.379 299.981 C 229.589 299.771,230.354 299.600,231.080 299.600 C 231.806 299.600,232.400 299.449,232.400 299.264 C 232.400 299.079,233.165 298.688,234.100 298.394 C 235.035 298.101,235.971 297.712,236.180 297.530 C 236.389 297.349,237.064 297.200,237.680 297.200 C 238.296 297.200,238.800 297.020,238.800 296.800 C 238.800 296.580,239.149 296.400,239.576 296.400 C 240.003 296.400,240.464 296.220,240.600 296.000 C 240.736 295.780,241.197 295.600,241.624 295.600 C 242.051 295.600,242.400 295.420,242.400 295.200 C 242.400 294.980,242.760 294.800,243.200 294.800 C 243.640 294.800,244.000 294.620,244.000 294.400 C 244.000 294.180,244.360 294.000,244.800 294.000 C 245.240 294.000,245.600 293.820,245.600 293.600 C 245.600 293.380,245.960 293.200,246.400 293.200 C 246.840 293.200,247.200 293.020,247.200 292.800 C 247.200 292.580,247.560 292.400,248.000 292.400 C 248.440 292.400,248.800 292.243,248.800 292.050 C 248.800 291.858,249.297 291.601,249.905 291.479 C 250.513 291.357,251.441 290.885,251.967 290.429 C 252.492 289.973,253.087 289.600,253.289 289.600 C 253.491 289.600,254.498 289.017,255.528 288.305 C 256.558 287.593,257.550 287.008,257.732 287.005 C 257.915 287.002,258.287 286.696,258.558 286.325 C 258.830 285.953,259.309 285.593,259.622 285.525 C 259.936 285.456,260.671 284.905,261.257 284.300 C 261.842 283.695,262.537 283.200,262.800 283.200 C 263.063 283.200,263.783 282.660,264.400 282.000 C 265.017 281.340,265.703 280.800,265.926 280.800 C 266.499 280.800,269.200 278.111,269.200 277.540 C 269.200 277.280,269.317 277.183,269.459 277.326 C 269.738 277.604,271.200 276.103,271.200 275.539 C 271.200 275.352,271.433 275.200,271.719 275.200 C 272.367 275.200,275.200 272.338,275.200 271.683 C 275.200 271.417,275.352 271.200,275.539 271.200 C 275.725 271.200,276.293 270.840,276.800 270.400 C 277.307 269.960,277.493 269.600,277.212 269.600 C 276.804 269.600,276.802 269.480,277.200 269.000 C 277.474 268.670,278.017 268.400,278.406 268.400 C 278.796 268.400,279.222 268.121,279.353 267.779 C 279.507 267.378,279.429 267.258,279.134 267.441 C 278.852 267.615,278.786 267.546,278.962 267.262 C 279.119 267.008,279.618 266.800,280.070 266.800 C 280.698 266.800,280.843 266.609,280.683 265.994 C 280.529 265.408,280.762 265.036,281.536 264.630 L 282.600 264.072 281.538 264.136 C 280.954 264.171,280.577 264.363,280.700 264.562 C 280.823 264.761,280.713 264.793,280.455 264.634 C 280.198 264.475,280.068 264.214,280.167 264.053 C 280.908 262.855,279.579 262.808,244.807 262.796 C 225.585 262.789,209.754 262.922,209.629 263.092 C 209.225 263.636,207.888 263.705,208.222 263.165 C 208.436 262.819,208.360 262.781,207.962 263.037 C 207.193 263.530,204.061 263.623,203.776 263.161 C 203.649 262.955,203.340 262.914,203.089 263.068 C 202.088 263.687,200.834 263.538,200.591 262.771 C 200.337 261.972,199.600 261.696,199.600 262.400 C 199.600 262.620,199.810 262.800,200.067 262.800 C 200.776 262.800,200.220 263.204,199.254 263.390 C 198.784 263.480,198.400 263.374,198.400 263.153 C 198.400 262.927,198.183 262.893,197.900 263.076 C 197.407 263.396,194.294 263.573,194.603 263.264 C 194.807 263.060,193.756 262.000,193.349 262.000 C 193.179 262.000,193.256 262.216,193.520 262.480 M195.600 262.387 C 195.600 262.601,195.870 262.671,196.200 262.545 C 196.530 262.418,196.800 262.524,196.800 262.781 C 196.800 263.037,196.980 263.136,197.200 263.000 C 197.937 262.545,197.610 262.000,196.600 262.000 C 196.050 262.000,195.600 262.174,195.600 262.387 M202.533 262.266 C 202.955 262.689,204.839 262.787,204.584 262.373 C 204.457 262.168,203.883 262.000,203.310 262.000 C 202.736 262.000,202.386 262.120,202.533 262.266 M359.459 266.475 C 359.317 268.482,359.200 274.135,359.200 279.038 C 359.200 284.550,359.047 288.047,358.800 288.200 C 358.580 288.336,358.400 289.596,358.400 291.000 C 358.400 292.404,358.220 293.664,358.000 293.800 C 357.780 293.936,357.600 294.847,357.600 295.824 C 357.600 296.801,357.420 297.600,357.200 297.600 C 356.980 297.600,356.800 298.219,356.800 298.976 C 356.800 299.733,356.620 300.464,356.400 300.600 C 356.180 300.736,356.000 301.456,356.000 302.200 C 356.000 302.944,355.820 303.664,355.600 303.800 C 355.380 303.936,355.200 304.487,355.200 305.024 C 355.200 305.561,355.020 306.000,354.800 306.000 C 354.580 306.000,354.400 306.540,354.400 307.200 C 354.400 307.860,354.220 308.400,354.000 308.400 C 353.780 308.400,353.600 308.749,353.600 309.176 C 353.600 309.603,353.420 310.064,353.200 310.200 C 352.980 310.336,352.800 310.797,352.800 311.224 C 352.800 311.651,352.620 312.000,352.400 312.000 C 352.180 312.000,352.000 312.360,352.000 312.800 C 352.000 313.240,351.820 313.600,351.600 313.600 C 351.380 313.600,351.200 313.834,351.200 314.120 C 351.200 314.856,350.259 316.793,349.900 316.797 C 349.735 316.799,349.600 317.058,349.600 317.373 C 349.600 317.967,347.383 321.796,346.496 322.732 C 346.219 323.025,346.075 323.397,346.175 323.559 C 346.275 323.722,346.016 324.100,345.600 324.400 C 345.184 324.700,344.934 325.093,345.045 325.273 C 345.156 325.453,345.078 325.600,344.872 325.600 C 344.666 325.600,344.274 326.138,344.002 326.795 C 343.730 327.452,343.348 327.891,343.154 327.771 C 342.959 327.651,342.800 327.833,342.800 328.176 C 342.800 328.519,342.620 328.800,342.400 328.800 C 342.180 328.800,342.000 329.030,342.000 329.312 C 342.000 329.593,341.640 330.083,341.200 330.400 C 340.760 330.717,340.400 331.237,340.400 331.555 C 340.400 331.873,340.304 332.037,340.187 331.920 C 339.952 331.685,337.200 334.307,337.200 334.765 C 337.200 335.167,335.035 337.195,334.578 337.222 C 334.059 337.252,332.267 339.567,332.267 340.206 C 332.267 340.491,332.021 340.630,331.721 340.514 C 331.421 340.399,330.845 340.687,330.441 341.153 C 330.037 341.619,329.502 342.000,329.253 342.000 C 329.004 342.000,328.845 342.225,328.900 342.500 C 328.959 342.797,328.683 342.945,328.222 342.864 C 327.552 342.748,327.517 342.818,327.970 343.364 C 328.671 344.208,329.271 344.166,330.308 343.200 C 331.149 342.417,331.719 342.400,357.497 342.400 L 383.828 342.400 384.606 341.100 C 385.370 339.824,385.449 339.629,385.550 338.776 C 385.578 338.543,385.808 338.481,386.062 338.638 C 386.336 338.807,386.415 338.749,386.258 338.494 C 386.112 338.258,386.286 337.771,386.644 337.413 C 387.002 337.055,387.185 336.652,387.051 336.518 C 386.917 336.383,387.022 336.014,387.286 335.696 C 387.549 335.379,387.808 334.826,387.861 334.467 C 387.913 334.108,388.146 333.751,388.378 333.674 C 388.610 333.597,388.800 333.278,388.800 332.967 C 388.800 332.655,388.980 332.400,389.200 332.400 C 389.420 332.400,389.600 332.040,389.600 331.600 C 389.600 331.160,389.791 330.800,390.024 330.800 C 390.257 330.800,390.345 330.635,390.220 330.432 C 390.095 330.230,390.236 329.821,390.533 329.524 C 390.831 329.227,391.028 328.672,390.972 328.292 C 390.916 327.911,391.035 327.600,391.235 327.600 C 391.436 327.600,391.600 327.060,391.600 326.400 C 391.600 325.740,391.780 325.200,392.000 325.200 C 392.220 325.200,392.400 324.851,392.400 324.424 C 392.400 323.997,392.580 323.536,392.800 323.400 C 393.020 323.264,393.200 322.713,393.200 322.176 C 393.200 321.639,393.380 321.200,393.600 321.200 C 393.820 321.200,394.000 320.761,394.000 320.224 C 394.000 319.687,394.180 319.136,394.400 319.000 C 394.620 318.864,394.800 318.313,394.800 317.776 C 394.800 317.239,394.980 316.800,395.200 316.800 C 395.420 316.800,395.600 316.271,395.600 315.624 C 395.600 314.977,395.780 314.336,396.000 314.200 C 396.220 314.064,396.400 313.153,396.400 312.176 C 396.400 311.199,396.580 310.400,396.800 310.400 C 397.020 310.400,397.200 309.860,397.200 309.200 C 397.200 308.540,397.380 308.000,397.600 308.000 C 397.820 308.000,398.000 307.201,398.000 306.224 C 398.000 305.247,398.180 304.336,398.400 304.200 C 398.620 304.064,398.800 302.988,398.800 301.810 C 398.800 300.451,398.983 299.606,399.300 299.500 C 399.687 299.371,399.832 295.220,399.943 281.060 L 400.086 262.786 379.902 262.807 L 359.718 262.828 359.459 266.475 M381.600 343.157 C 381.600 343.354,381.885 343.624,382.233 343.757 C 383.127 344.100,383.200 344.073,383.200 343.400 C 383.200 343.067,382.844 342.800,382.400 342.800 C 381.960 342.800,381.600 342.961,381.600 343.157 M381.783 344.372 C 381.909 344.577,381.830 344.858,381.607 344.996 C 381.383 345.134,381.206 345.462,381.213 345.724 C 381.220 345.986,381.490 345.851,381.813 345.424 C 382.506 344.508,382.564 344.000,381.976 344.000 C 381.743 344.000,381.656 344.168,381.783 344.372 M75.200 346.024 C 75.200 346.257,75.361 346.348,75.558 346.226 C 75.755 346.104,76.018 346.271,76.143 346.596 C 76.280 346.953,76.631 347.086,77.032 346.932 C 77.595 346.716,77.553 346.600,76.747 346.153 C 75.581 345.507,75.200 345.475,75.200 346.024 M380.120 346.757 C 379.860 347.173,379.756 347.623,379.890 347.757 C 380.391 348.258,380.700 347.969,380.700 347.000 C 380.700 345.802,380.713 345.808,380.120 346.757 M322.262 346.983 C 322.132 347.322,321.739 347.600,321.389 347.600 C 321.028 347.600,320.870 347.790,321.025 348.040 C 321.205 348.331,321.578 348.199,322.126 347.651 C 322.582 347.195,322.853 346.719,322.727 346.594 C 322.602 346.468,322.392 346.643,322.262 346.983 M19.200 347.124 C 19.200 347.339,19.485 347.624,19.833 347.757 C 20.223 347.907,20.406 347.818,20.308 347.525 C 20.109 346.927,19.200 346.598,19.200 347.124 M80.378 348.954 C 81.972 350.164,82.048 350.191,81.760 349.439 C 81.641 349.131,81.242 348.771,80.872 348.639 C 80.503 348.507,79.930 348.289,79.600 348.154 C 79.270 348.019,79.620 348.379,80.378 348.954 M374.179 355.900 C 373.787 356.505,373.107 357.316,372.669 357.703 C 372.230 358.089,371.960 358.493,372.068 358.601 C 372.175 358.709,372.630 358.393,373.079 357.898 C 374.061 356.816,375.371 354.800,375.092 354.800 C 374.982 354.800,374.571 355.295,374.179 355.900 M288.200 358.800 C 288.064 359.020,288.223 359.200,288.553 359.200 C 288.883 359.200,289.264 359.020,289.400 358.800 C 289.536 358.580,289.377 358.400,289.047 358.400 C 288.717 358.400,288.336 358.580,288.200 358.800 M357.000 373.460 C 355.795 374.536,355.705 374.685,356.636 374.063 C 357.741 373.324,359.132 371.976,358.749 372.015 C 358.667 372.023,357.880 372.673,357.000 373.460 " stroke="none" fill="#ce6349" fill-rule="evenodd"></path></g></svg>