<?xml version="1.0" encoding="utf-8"?>
<!-- Generator: Adobe Illustrator 24.3.0, SVG Export Plug-In . SVG Version: 6.00 Build 0)  -->
<svg version="1.1" id="Layer_1" xmlns="http://www.w3.org/2000/svg" xmlns:xlink="http://www.w3.org/1999/xlink" x="0px" y="0px"
	 viewBox="0 0 512 512" style="enable-background:new 0 0 512 512;" xml:space="preserve">
<style type="text/css">
	.st0{fill:#FFFFFF;}
	.st1{fill:url(#SVGID_1_);}
	.st2{fill:#FFFEFF;}
	.st3{fill:url(#SVGID_2_);}
	.st4{fill:url(#SVGID_3_);}
</style>
<g>
	<g>
		<linearGradient id="SVGID_1_" gradientUnits="userSpaceOnUse" x1="179.7853" y1="353.998" x2="333.7234" y2="353.998">
			<stop  offset="0" style="stop-color:#FDBA18"/>
			<stop  offset="0.5025" style="stop-color:#ED2490"/>
			<stop  offset="1" style="stop-color:#EF3C26"/>
		</linearGradient>
		<path class="st1" d="M179.79,309.77c0,0,5.95-26.37,25.51-31.47l24.66-0.85h74.48c0,0,25.88,4.25,29.28,30.62v35.49v55.36
			c0,0,0,9.51-5.95,16.31c-5.95,6.8-10.21,11.91-24.66,15.31h-48.42h-46.61c0,0-8.73-0.85-18.09-10.21
			c-9.36-9.36-9.39-18.33-9.39-18.33l-0.82-44.91v-38.82v-6.7V309.77z"/>
		<polygon class="st2" points="211.21,275.56 225.53,275.56 244.86,309.84 287.67,309.84 267.71,275.56 283.15,274.9 302.73,309.84 
			337.13,309.84 337.13,325.2 178.08,325.2 178.08,310.85 229.93,309.84 		"/>
		<path class="st0" d="M235.75,381.72v-22.96v-4.85c0,0,0-12.17,9.93-6.21c8.59,5.15,30.82,18.58,36.66,22.1
			c0.91,0.55,1.42,0.86,1.42,0.86s11.06,4.25-0.68,11.06c-11.74,6.8-20.97,12.65-20.97,12.65l-16.43,8.61c0,0-9.11,5.86-9.93-6.42
			V381.72z"/>
	</g>
	<g>
		<linearGradient id="SVGID_2_" gradientUnits="userSpaceOnUse" x1="174.8747" y1="164.7086" x2="332.1253" y2="164.7086">
			<stop  offset="0" style="stop-color:#FDBA18"/>
			<stop  offset="0.5025" style="stop-color:#ED2490"/>
			<stop  offset="1" style="stop-color:#EF3C26"/>
		</linearGradient>
		<path class="st3" d="M174.88,199v-75.7c0,0,5.38-41.08,44.71-41.6c39.34-0.52,74.14,0,74.14,0s42.3,7.87,38.1,51.93l0.29,70.1v9.1
			c0,0-3.96,29.9-34.39,35.14H211.8C211.8,247.96,174.74,247.6,174.88,199z"/>
		<g>
			<path class="st0" d="M186.02,137.81c2.62,0.52,133.97,0,133.97,0v69.55c0,0-2.62,34.3-39.45,31.15h-65.75
				c0,0-30.87-7.18-28.77-36.37V137.81z"/>
			<g>
				<path class="st0" d="M227.46,126.27h-40.46c0,0,4.27-26.23,29.45-27.27L227.46,126.27z"/>
				<polygon class="st0" points="230.49,99 242.63,126.27 272.47,126.27 261.85,99 				"/>
				<path class="st0" d="M274.89,99l11.91,27.27h33.49C320.29,126.27,314.45,92.71,274.89,99z"/>
			</g>
		</g>
		<linearGradient id="SVGID_3_" gradientUnits="userSpaceOnUse" x1="231.6525" y1="187.2383" x2="282.6491" y2="187.2383">
			<stop  offset="0" style="stop-color:#FDBA18"/>
			<stop  offset="0.5025" style="stop-color:#ED2490"/>
			<stop  offset="1" style="stop-color:#EF3C26"/>
		</linearGradient>
		<path class="st4" d="M231.65,193.52v-22.2v-4.69c0,0,0-11.77,9.61-6.01c8.31,4.98,29.81,17.97,35.45,21.38
			c0.88,0.53,1.37,0.83,1.37,0.83s10.69,4.11-0.66,10.69s-20.28,12.24-20.28,12.24l-15.89,8.33c0,0-8.81,5.67-9.61-6.21V193.52z"/>
	</g>
</g>
</svg>
