<?xml version="1.0" encoding="utf-8"?>
<svg xmlns="http://www.w3.org/2000/svg" xmlns:xlink="http://www.w3.org/1999/xlink" style="margin: auto; background: rgba(241, 242, 243, 0); display: block; shape-rendering: auto;" width="271px" height="271px" viewBox="0 0 100 100" preserveAspectRatio="xMidYMid">
<g transform="rotate(0 50 50)">
  <rect x="47" y="23" rx="1.28" ry="1.28" width="6" height="8" fill="#0074f0">
    <animate attributeName="opacity" values="1;0" keyTimes="0;1" dur="1s" begin="-0.9333333333333333s" repeatCount="indefinite"></animate>
  </rect>
</g><g transform="rotate(24 50 50)">
  <rect x="47" y="23" rx="1.28" ry="1.28" width="6" height="8" fill="#0074f0">
    <animate attributeName="opacity" values="1;0" keyTimes="0;1" dur="1s" begin="-0.8666666666666667s" repeatCount="indefinite"></animate>
  </rect>
</g><g transform="rotate(48 50 50)">
  <rect x="47" y="23" rx="1.28" ry="1.28" width="6" height="8" fill="#0074f0">
    <animate attributeName="opacity" values="1;0" keyTimes="0;1" dur="1s" begin="-0.8s" repeatCount="indefinite"></animate>
  </rect>
</g><g transform="rotate(72 50 50)">
  <rect x="47" y="23" rx="1.28" ry="1.28" width="6" height="8" fill="#0074f0">
    <animate attributeName="opacity" values="1;0" keyTimes="0;1" dur="1s" begin="-0.7333333333333333s" repeatCount="indefinite"></animate>
  </rect>
</g><g transform="rotate(96 50 50)">
  <rect x="47" y="23" rx="1.28" ry="1.28" width="6" height="8" fill="#0074f0">
    <animate attributeName="opacity" values="1;0" keyTimes="0;1" dur="1s" begin="-0.6666666666666666s" repeatCount="indefinite"></animate>
  </rect>
</g><g transform="rotate(120 50 50)">
  <rect x="47" y="23" rx="1.28" ry="1.28" width="6" height="8" fill="#0074f0">
    <animate attributeName="opacity" values="1;0" keyTimes="0;1" dur="1s" begin="-0.6s" repeatCount="indefinite"></animate>
  </rect>
</g><g transform="rotate(144 50 50)">
  <rect x="47" y="23" rx="1.28" ry="1.28" width="6" height="8" fill="#0074f0">
    <animate attributeName="opacity" values="1;0" keyTimes="0;1" dur="1s" begin="-0.5333333333333333s" repeatCount="indefinite"></animate>
  </rect>
</g><g transform="rotate(168 50 50)">
  <rect x="47" y="23" rx="1.28" ry="1.28" width="6" height="8" fill="#0074f0">
    <animate attributeName="opacity" values="1;0" keyTimes="0;1" dur="1s" begin="-0.4666666666666667s" repeatCount="indefinite"></animate>
  </rect>
</g><g transform="rotate(192 50 50)">
  <rect x="47" y="23" rx="1.28" ry="1.28" width="6" height="8" fill="#0074f0">
    <animate attributeName="opacity" values="1;0" keyTimes="0;1" dur="1s" begin="-0.4s" repeatCount="indefinite"></animate>
  </rect>
</g><g transform="rotate(216 50 50)">
  <rect x="47" y="23" rx="1.28" ry="1.28" width="6" height="8" fill="#0074f0">
    <animate attributeName="opacity" values="1;0" keyTimes="0;1" dur="1s" begin="-0.3333333333333333s" repeatCount="indefinite"></animate>
  </rect>
</g><g transform="rotate(240 50 50)">
  <rect x="47" y="23" rx="1.28" ry="1.28" width="6" height="8" fill="#0074f0">
    <animate attributeName="opacity" values="1;0" keyTimes="0;1" dur="1s" begin="-0.26666666666666666s" repeatCount="indefinite"></animate>
  </rect>
</g><g transform="rotate(264 50 50)">
  <rect x="47" y="23" rx="1.28" ry="1.28" width="6" height="8" fill="#0074f0">
    <animate attributeName="opacity" values="1;0" keyTimes="0;1" dur="1s" begin="-0.2s" repeatCount="indefinite"></animate>
  </rect>
</g><g transform="rotate(288 50 50)">
  <rect x="47" y="23" rx="1.28" ry="1.28" width="6" height="8" fill="#0074f0">
    <animate attributeName="opacity" values="1;0" keyTimes="0;1" dur="1s" begin="-0.13333333333333333s" repeatCount="indefinite"></animate>
  </rect>
</g><g transform="rotate(312 50 50)">
  <rect x="47" y="23" rx="1.28" ry="1.28" width="6" height="8" fill="#0074f0">
    <animate attributeName="opacity" values="1;0" keyTimes="0;1" dur="1s" begin="-0.06666666666666667s" repeatCount="indefinite"></animate>
  </rect>
</g><g transform="rotate(336 50 50)">
  <rect x="47" y="23" rx="1.28" ry="1.28" width="6" height="8" fill="#0074f0">
    <animate attributeName="opacity" values="1;0" keyTimes="0;1" dur="1s" begin="0s" repeatCount="indefinite"></animate>
  </rect>
</g>
<!-- [ldio] generated by https://loading.io/ --></svg>