<?xml version="1.0" standalone="no"?>
<!DOCTYPE svg PUBLIC "-//W3C//DTD SVG 20010904//EN"
 "http://www.w3.org/TR/2001/REC-SVG-20010904/DTD/svg10.dtd">
<svg version="1.0" xmlns="http://www.w3.org/2000/svg"
 width="512.000000pt" height="512.000000pt" viewBox="0 0 512.000000 512.000000"
 preserveAspectRatio="xMidYMid meet">

<g transform="translate(0.000000,512.000000) scale(0.100000,-0.100000)"
fill="#000000" stroke="none">
<path d="M475 1639 c38 -12 199 -12 245 0 25 6 -9 9 -120 9 -111 0 -146 -2
-125 -9z"/>
<path d="M3740 1435 l0 -215 50 0 50 0 0 215 0 215 -50 0 -50 0 0 -215z"/>
<path d="M3940 1093 c0 -604 0 -607 -56 -722 -33 -68 -139 -176 -210 -213
-250 -133 -554 -35 -684 222 -110 217 -35 499 169 634 99 66 154 81 291 80
126 0 180 -15 267 -74 l43 -29 27 36 27 35 -24 20 c-84 68 -224 111 -355 110
-162 -1 -306 -62 -420 -177 -109 -111 -168 -256 -168 -415 0 -261 159 -481
408 -566 101 -34 245 -38 340 -10 202 60 353 210 421 416 17 50 19 108 22 633
l3 577 -50 0 -51 0 0 -557z"/>
<path d="M1466 1508 c-9 -12 -16 -37 -16 -54 0 -69 -60 -158 -132 -195 -22
-11 -62 -23 -89 -26 -37 -4 -54 -12 -65 -29 -25 -37 -5 -60 60 -68 116 -15
209 -105 225 -218 9 -68 16 -78 51 -78 35 0 42 10 51 78 16 113 109 203 225
218 65 8 85 31 60 68 -11 17 -28 25 -65 29 -118 14 -221 116 -221 219 0 67
-52 101 -84 56z m93 -267 l58 -58 -47 -44 c-26 -24 -52 -53 -59 -64 l-11 -20
-11 20 c-7 11 -33 40 -59 64 l-47 44 56 58 c31 31 57 58 59 58 1 1 28 -25 61
-58z"/>
</g>
</svg>
