<svg id="svg" version="1.1" xmlns="http://www.w3.org/2000/svg" xmlns:xlink="http://www.w3.org/1999/xlink" width="400" height="400" viewBox="0, 0, 400,400"><g id="svgg"><path id="path0" d="M212.067 149.900 L 212.000 153.600 199.600 153.600 L 187.200 153.600 187.200 170.400 L 187.200 187.200 131.000 187.200 L 74.800 187.200 74.800 200.000 L 74.800 212.800 131.000 212.800 L 187.200 212.800 187.201 229.100 C 187.202 238.065,187.320 247.965,187.464 251.100 L 187.724 256.800 199.862 256.800 L 212.000 256.800 212.000 255.000 C 212.000 254.010,212.180 253.200,212.400 253.200 C 212.661 253.200,212.800 246.200,212.800 233.000 L 212.800 212.800 269.000 212.800 L 325.200 212.800 325.200 200.000 L 325.200 187.200 269.000 187.200 L 212.800 187.200 212.751 170.900 C 212.724 161.935,212.574 152.710,212.418 150.400 L 212.134 146.200 212.067 149.900 M0.000 205.200 L 0.000 256.800 12.377 256.800 L 24.754 256.800 24.907 258.500 C 24.991 259.435,25.092 236.215,25.130 206.900 L 25.200 153.600 12.600 153.600 L 0.000 153.600 0.000 205.200 M374.870 206.900 C 374.908 236.215,375.009 259.435,375.093 258.500 L 375.246 256.800 387.623 256.800 L 400.000 256.800 400.000 205.200 L 400.000 153.600 387.400 153.600 L 374.800 153.600 374.870 206.900 " stroke="none" fill="#ed713c" fill-rule="evenodd"></path><path id="path1" d="M51.000 0.293 C 49.900 0.378,48.829 0.617,48.620 0.824 C 48.411 1.031,47.657 1.200,46.944 1.200 C 46.231 1.200,45.536 1.380,45.400 1.600 C 45.264 1.820,44.623 2.000,43.976 2.000 C 43.329 2.000,42.800 2.180,42.800 2.400 C 42.800 2.620,42.260 2.800,41.600 2.800 C 40.940 2.800,40.400 2.980,40.400 3.200 C 40.400 3.420,40.040 3.600,39.600 3.600 C 39.160 3.600,38.800 3.780,38.800 4.000 C 38.800 4.220,38.485 4.399,38.100 4.397 C 37.325 4.393,30.678 7.614,30.467 8.096 C 30.393 8.263,30.078 8.400,29.767 8.400 C 29.455 8.400,29.200 8.580,29.200 8.800 C 29.200 9.020,29.028 9.200,28.818 9.200 C 28.363 9.200,25.731 10.876,24.600 11.886 C 24.160 12.279,23.300 12.923,22.688 13.317 C 21.246 14.247,14.247 21.246,13.317 22.688 C 12.923 23.300,12.279 24.160,11.886 24.600 C 10.876 25.731,9.200 28.363,9.200 28.818 C 9.200 29.028,9.020 29.200,8.800 29.200 C 8.580 29.200,8.400 29.470,8.400 29.800 C 8.400 30.130,8.265 30.401,8.100 30.403 C 7.749 30.407,6.800 32.337,6.800 33.046 C 6.800 33.314,6.665 33.593,6.500 33.667 C 6.001 33.888,4.400 37.222,4.400 38.038 C 4.400 38.457,4.220 38.800,4.000 38.800 C 3.780 38.800,3.600 39.160,3.600 39.600 C 3.600 40.040,3.420 40.400,3.200 40.400 C 2.980 40.400,2.800 40.940,2.800 41.600 C 2.800 42.260,2.620 42.800,2.400 42.800 C 2.180 42.800,2.000 43.329,2.000 43.976 C 2.000 44.623,1.820 45.264,1.600 45.400 C 1.380 45.536,1.200 46.231,1.200 46.944 C 1.200 47.657,1.034 48.411,0.832 48.620 C 0.630 48.829,0.391 50.327,0.301 51.950 C 0.170 54.323,0.232 54.771,0.620 54.240 C 1.465 53.084,26.584 53.310,25.964 54.467 C 25.615 55.120,25.635 55.256,26.061 55.115 C 26.358 55.018,26.657 54.457,26.727 53.869 C 26.796 53.281,26.991 52.800,27.160 52.800 C 27.329 52.800,27.467 52.244,27.467 51.565 C 27.467 50.885,27.632 50.210,27.833 50.065 C 28.035 49.919,28.261 49.440,28.337 49.000 C 28.412 48.560,28.637 48.140,28.837 48.067 C 29.036 47.993,29.200 47.588,29.200 47.167 C 29.200 46.745,29.380 46.400,29.600 46.400 C 29.820 46.400,30.000 46.040,30.000 45.600 C 30.000 45.160,30.136 44.800,30.302 44.800 C 30.469 44.800,30.863 44.215,31.178 43.500 C 31.493 42.785,32.437 41.539,33.275 40.731 C 34.114 39.924,34.800 39.108,34.800 38.920 C 34.800 38.731,35.160 38.317,35.600 38.000 C 36.040 37.683,36.400 37.193,36.400 36.912 C 36.400 36.630,36.630 36.400,36.912 36.400 C 37.193 36.400,37.683 36.040,38.000 35.600 C 38.317 35.160,38.717 34.800,38.888 34.800 C 39.059 34.800,39.931 34.090,40.825 33.222 C 41.719 32.355,42.979 31.411,43.625 31.125 C 44.271 30.839,44.800 30.469,44.800 30.302 C 44.800 30.136,45.160 30.000,45.600 30.000 C 46.040 30.000,46.400 29.820,46.400 29.600 C 46.400 29.380,46.760 29.200,47.200 29.200 C 47.640 29.200,48.000 29.020,48.000 28.800 C 48.000 28.580,48.450 28.400,49.000 28.400 C 49.550 28.400,50.000 28.220,50.000 28.000 C 50.000 27.780,50.630 27.600,51.400 27.600 C 52.170 27.600,52.800 27.420,52.800 27.200 C 52.800 26.980,53.340 26.800,54.000 26.800 C 54.660 26.800,55.200 26.620,55.200 26.400 C 55.200 26.163,56.659 26.000,58.776 26.000 C 60.743 26.000,62.464 25.820,62.600 25.600 C 62.764 25.335,109.004 25.200,200.024 25.200 C 291.208 25.200,337.200 25.334,337.200 25.600 C 337.200 25.838,338.725 26.000,340.976 26.000 C 343.063 26.000,344.863 26.179,345.000 26.400 C 345.136 26.620,345.676 26.800,346.200 26.800 C 346.724 26.800,347.264 26.980,347.400 27.200 C 347.536 27.420,348.076 27.600,348.600 27.600 C 349.124 27.600,349.664 27.780,349.800 28.000 C 349.936 28.220,350.487 28.400,351.024 28.400 C 351.561 28.400,352.000 28.580,352.000 28.800 C 352.000 29.020,352.360 29.200,352.800 29.200 C 353.240 29.200,353.600 29.380,353.600 29.600 C 353.600 29.820,353.960 30.000,354.400 30.000 C 354.840 30.000,355.200 30.159,355.200 30.353 C 355.200 30.548,355.515 30.807,355.900 30.929 C 357.119 31.315,358.897 32.547,360.622 34.200 C 361.540 35.080,362.631 36.089,363.046 36.442 C 364.936 38.052,369.200 43.550,369.200 44.379 C 369.200 44.610,369.380 44.800,369.600 44.800 C 369.820 44.800,370.000 45.160,370.000 45.600 C 370.000 46.040,370.180 46.400,370.400 46.400 C 370.620 46.400,370.800 46.760,370.800 47.200 C 370.800 47.640,370.980 48.000,371.200 48.000 C 371.420 48.000,371.600 48.439,371.600 48.976 C 371.600 49.513,371.780 50.064,372.000 50.200 C 372.220 50.336,372.406 50.842,372.413 51.324 C 372.420 51.806,372.671 52.523,372.970 52.919 C 373.270 53.314,373.430 53.964,373.325 54.363 C 373.214 54.791,373.396 55.190,373.768 55.332 C 374.167 55.486,374.400 55.359,374.400 54.987 C 374.400 54.664,374.258 54.400,374.085 54.400 C 373.912 54.400,373.742 54.019,373.706 53.553 C 373.645 52.734,373.663 52.731,374.251 53.453 C 374.586 53.864,374.773 54.020,374.667 53.800 C 374.543 53.543,376.000 53.435,378.737 53.498 C 397.859 53.940,400.885 53.818,399.716 52.650 C 399.560 52.494,399.485 51.644,399.548 50.763 C 399.612 49.881,399.492 48.943,399.282 48.680 C 398.925 48.231,398.687 47.277,398.137 44.100 C 398.014 43.385,397.752 42.800,397.556 42.800 C 397.360 42.800,397.200 42.361,397.200 41.824 C 397.200 41.287,397.020 40.736,396.800 40.600 C 396.580 40.464,396.400 40.003,396.400 39.576 C 396.400 39.149,396.220 38.800,396.000 38.800 C 395.780 38.800,395.600 38.445,395.600 38.012 C 395.600 37.579,395.240 36.583,394.800 35.800 C 394.360 35.017,394.000 34.111,394.000 33.788 C 394.000 33.465,393.854 33.200,393.675 33.200 C 393.496 33.200,393.102 32.570,392.800 31.800 C 392.498 31.030,392.149 30.398,392.025 30.395 C 391.901 30.393,391.456 29.673,391.036 28.795 C 390.615 27.918,390.132 27.200,389.963 27.200 C 389.793 27.200,389.538 26.834,389.396 26.387 C 389.254 25.940,388.706 25.142,388.178 24.614 C 387.650 24.086,387.169 23.424,387.109 23.141 C 386.983 22.549,377.674 13.200,377.209 13.200 C 377.040 13.200,376.214 12.571,375.376 11.803 C 374.537 11.035,373.524 10.303,373.125 10.176 C 372.726 10.050,372.400 9.778,372.400 9.573 C 372.400 9.368,372.040 9.200,371.600 9.200 C 371.160 9.200,370.800 9.020,370.800 8.800 C 370.800 8.580,370.530 8.400,370.200 8.400 C 369.870 8.400,369.600 8.220,369.600 8.000 C 369.600 7.780,369.330 7.600,369.000 7.600 C 368.670 7.600,368.400 7.420,368.400 7.200 C 368.400 6.980,368.040 6.800,367.600 6.800 C 367.160 6.800,366.800 6.620,366.800 6.400 C 366.800 6.180,366.535 6.000,366.212 6.000 C 365.889 6.000,364.983 5.640,364.200 5.200 C 363.417 4.760,362.421 4.400,361.988 4.400 C 361.555 4.400,361.200 4.220,361.200 4.000 C 361.200 3.780,360.928 3.600,360.595 3.600 C 360.262 3.600,359.677 3.441,359.295 3.247 C 357.369 2.267,356.353 1.957,353.000 1.326 C 352.340 1.201,351.547 0.897,351.239 0.650 C 350.707 0.224,56.417 -0.125,51.000 0.293 M25.492 61.442 C 25.331 61.602,25.200 62.009,25.200 62.347 C 25.200 62.797,25.318 62.842,25.645 62.515 C 25.890 62.270,26.021 61.863,25.937 61.610 C 25.852 61.357,25.652 61.281,25.492 61.442 M374.000 61.976 C 374.000 62.429,374.180 62.800,374.400 62.800 C 374.620 62.800,374.800 62.541,374.800 62.224 C 374.800 61.907,374.620 61.536,374.400 61.400 C 374.180 61.264,374.000 61.523,374.000 61.976 " stroke="none" fill="#faad23" fill-rule="evenodd"></path><path id="path2" d="M25.047 337.821 C 24.911 338.177,24.978 338.337,25.205 338.197 C 25.427 338.060,25.600 338.412,25.600 339.000 C 25.600 339.613,25.430 339.942,25.190 339.794 C 24.965 339.655,24.806 339.689,24.837 339.870 C 24.869 340.052,24.873 340.605,24.847 341.100 L 24.800 342.000 13.000 342.000 L 1.200 342.000 1.200 341.013 C 1.200 340.313,1.030 340.090,0.619 340.248 C -0.082 340.517,0.066 351.026,0.781 351.741 C 1.011 351.971,1.200 352.653,1.200 353.256 C 1.200 353.859,1.380 354.464,1.600 354.600 C 1.820 354.736,2.000 355.366,2.000 356.000 C 2.000 356.634,2.180 357.264,2.400 357.400 C 2.620 357.536,2.800 358.087,2.800 358.624 C 2.800 359.161,2.947 359.600,3.128 359.600 C 3.308 359.600,3.700 360.500,4.000 361.600 C 4.300 362.700,4.692 363.600,4.872 363.600 C 5.053 363.600,5.200 363.960,5.200 364.400 C 5.200 364.840,5.380 365.200,5.600 365.200 C 5.820 365.200,6.000 365.560,6.000 366.000 C 6.000 366.440,6.180 366.800,6.400 366.800 C 6.620 366.800,6.800 367.160,6.800 367.600 C 6.800 368.040,6.980 368.400,7.200 368.400 C 7.420 368.400,7.600 368.636,7.600 368.925 C 7.600 369.213,7.960 369.836,8.400 370.308 C 8.840 370.780,9.200 371.444,9.200 371.783 C 9.200 372.122,9.368 372.400,9.573 372.400 C 9.778 372.400,10.054 372.739,10.185 373.153 C 10.317 373.568,10.959 374.466,11.612 375.150 C 12.265 375.833,12.800 376.576,12.800 376.800 C 12.800 377.355,22.679 387.200,23.236 387.200 C 23.479 387.200,24.183 387.740,24.800 388.400 C 25.417 389.060,26.126 389.600,26.377 389.600 C 26.628 389.600,27.227 389.967,27.709 390.415 C 28.190 390.864,28.993 391.334,29.492 391.459 C 29.991 391.584,30.400 391.847,30.400 392.043 C 30.400 392.240,30.670 392.400,31.000 392.400 C 31.330 392.400,31.600 392.580,31.600 392.800 C 31.600 393.020,31.960 393.200,32.400 393.200 C 32.840 393.200,33.200 393.380,33.200 393.600 C 33.200 393.820,33.560 394.000,34.000 394.000 C 34.440 394.000,34.800 394.180,34.800 394.400 C 34.800 394.620,35.160 394.800,35.600 394.800 C 36.040 394.800,36.400 394.947,36.400 395.128 C 36.400 395.308,37.300 395.700,38.400 396.000 C 39.500 396.300,40.400 396.692,40.400 396.872 C 40.400 397.053,40.940 397.200,41.600 397.200 C 42.260 397.200,42.800 397.380,42.800 397.600 C 42.800 397.820,43.329 398.000,43.976 398.000 C 44.623 398.000,45.264 398.180,45.400 398.400 C 45.536 398.620,46.141 398.800,46.744 398.800 C 47.347 398.800,48.065 399.025,48.340 399.300 C 48.738 399.698,79.605 399.800,200.000 399.800 C 320.395 399.800,351.262 399.698,351.660 399.300 C 351.935 399.025,352.653 398.800,353.256 398.800 C 353.859 398.800,354.464 398.620,354.600 398.400 C 354.736 398.180,355.366 398.000,356.000 398.000 C 356.634 398.000,357.264 397.820,357.400 397.600 C 357.536 397.380,358.087 397.200,358.624 397.200 C 359.161 397.200,359.600 397.020,359.600 396.800 C 359.600 396.580,360.039 396.400,360.576 396.400 C 361.113 396.400,361.664 396.220,361.800 396.000 C 361.936 395.780,362.397 395.600,362.824 395.600 C 363.251 395.600,363.600 395.420,363.600 395.200 C 363.600 394.980,363.960 394.800,364.400 394.800 C 364.840 394.800,365.200 394.620,365.200 394.400 C 365.200 394.180,365.560 394.000,366.000 394.000 C 366.440 394.000,366.800 393.820,366.800 393.600 C 366.800 393.380,367.160 393.200,367.600 393.200 C 368.040 393.200,368.400 393.064,368.400 392.898 C 368.400 392.731,369.276 392.193,370.348 391.702 C 371.419 391.210,372.521 390.537,372.797 390.204 C 373.072 389.872,373.474 389.600,373.688 389.600 C 373.903 389.600,374.583 389.060,375.200 388.400 C 375.817 387.740,376.521 387.200,376.764 387.200 C 377.343 387.200,387.200 377.343,387.200 376.764 C 387.200 376.521,387.740 375.817,388.400 375.200 C 389.060 374.583,389.600 373.903,389.600 373.688 C 389.600 373.474,389.872 373.072,390.204 372.797 C 390.537 372.521,391.210 371.419,391.702 370.348 C 392.193 369.276,392.731 368.400,392.898 368.400 C 393.064 368.400,393.200 368.040,393.200 367.600 C 393.200 367.160,393.380 366.800,393.600 366.800 C 393.820 366.800,394.000 366.440,394.000 366.000 C 394.000 365.560,394.180 365.200,394.400 365.200 C 394.620 365.200,394.800 364.840,394.800 364.400 C 394.800 363.960,394.980 363.600,395.200 363.600 C 395.420 363.600,395.600 363.251,395.600 362.824 C 395.600 362.397,395.780 361.936,396.000 361.800 C 396.220 361.664,396.400 361.113,396.400 360.576 C 396.400 360.039,396.580 359.600,396.800 359.600 C 397.020 359.600,397.200 359.161,397.200 358.624 C 397.200 358.087,397.380 357.536,397.600 357.400 C 397.820 357.264,398.000 356.634,398.000 356.000 C 398.000 355.366,398.180 354.736,398.400 354.600 C 398.620 354.464,398.800 353.859,398.800 353.256 C 398.800 352.653,398.989 351.971,399.220 351.740 C 399.662 351.298,400.111 341.156,399.733 340.169 C 399.352 339.177,398.738 339.555,398.871 340.700 L 399.000 341.800 387.100 341.906 C 375.417 342.010,375.199 341.997,375.150 341.206 C 375.086 340.178,374.915 338.120,374.850 337.600 C 374.822 337.380,374.625 337.200,374.410 337.200 C 373.873 337.200,373.954 343.663,374.500 344.320 C 374.739 344.609,374.770 344.814,374.568 344.775 C 373.557 344.583,373.200 344.902,373.200 346.000 C 373.200 346.660,373.020 347.200,372.800 347.200 C 372.580 347.200,372.400 347.740,372.400 348.400 C 372.400 349.060,372.220 349.600,372.000 349.600 C 371.780 349.600,371.600 350.140,371.600 350.800 C 371.600 351.460,371.420 352.000,371.200 352.000 C 370.980 352.000,370.800 352.360,370.800 352.800 C 370.800 353.240,370.641 353.600,370.447 353.600 C 370.252 353.600,369.993 353.915,369.871 354.300 C 369.602 355.149,368.386 357.174,367.700 357.916 C 367.425 358.214,367.200 358.586,367.200 358.743 C 367.200 359.483,359.483 367.200,358.743 367.200 C 358.586 367.200,358.214 367.425,357.916 367.700 C 357.174 368.386,355.149 369.602,354.300 369.871 C 353.915 369.993,353.600 370.252,353.600 370.447 C 353.600 370.641,353.240 370.800,352.800 370.800 C 352.360 370.800,352.000 370.980,352.000 371.200 C 352.000 371.420,351.460 371.600,350.800 371.600 C 350.140 371.600,349.600 371.780,349.600 372.000 C 349.600 372.220,349.060 372.400,348.400 372.400 C 347.740 372.400,347.200 372.580,347.200 372.800 C 347.200 373.020,346.660 373.200,346.000 373.200 C 345.340 373.200,344.800 373.380,344.800 373.600 C 344.800 373.839,343.267 374.000,341.000 374.000 C 338.733 374.000,337.200 374.161,337.200 374.400 C 337.200 374.666,291.200 374.800,200.000 374.800 C 108.800 374.800,62.800 374.666,62.800 374.400 C 62.800 374.161,61.267 374.000,59.000 374.000 C 56.733 374.000,55.200 373.839,55.200 373.600 C 55.200 373.380,54.660 373.200,54.000 373.200 C 53.340 373.200,52.800 373.020,52.800 372.800 C 52.800 372.580,52.260 372.400,51.600 372.400 C 50.940 372.400,50.400 372.220,50.400 372.000 C 50.400 371.780,49.860 371.600,49.200 371.600 C 48.540 371.600,48.000 371.420,48.000 371.200 C 48.000 370.980,47.640 370.800,47.200 370.800 C 46.760 370.800,46.400 370.641,46.400 370.447 C 46.400 370.252,46.085 369.993,45.700 369.871 C 44.391 369.456,42.216 367.979,40.000 366.000 C 37.933 364.154,37.193 363.600,36.795 363.600 C 36.578 363.600,36.400 363.396,36.400 363.147 C 36.400 362.898,35.590 361.885,34.600 360.895 C 33.610 359.905,32.800 358.951,32.800 358.776 C 32.800 358.601,32.575 358.214,32.300 357.916 C 31.614 357.174,30.398 355.149,30.129 354.300 C 30.007 353.915,29.748 353.600,29.553 353.600 C 29.359 353.600,29.200 353.240,29.200 352.800 C 29.200 352.360,29.020 352.000,28.800 352.000 C 28.580 352.000,28.400 351.460,28.400 350.800 C 28.400 350.140,28.220 349.600,28.000 349.600 C 27.780 349.600,27.600 349.060,27.600 348.400 C 27.600 347.740,27.420 347.200,27.200 347.200 C 26.980 347.200,26.800 346.660,26.800 346.000 C 26.800 345.340,26.620 344.800,26.400 344.800 C 26.180 344.800,26.000 344.069,26.000 343.176 C 26.000 341.994,25.864 341.629,25.500 341.835 C 25.100 342.061,25.100 342.010,25.500 341.579 C 26.067 340.968,26.190 337.200,25.643 337.200 C 25.446 337.200,25.178 337.479,25.047 337.821 " stroke="none" fill="#ec433c" fill-rule="evenodd"></path><path id="path3" d="M187.284 287.100 L 187.200 325.200 200.000 325.200 L 212.800 325.200 212.800 289.200 C 212.800 265.467,212.664 253.200,212.400 253.200 C 212.180 253.200,212.000 254.010,212.000 255.000 L 212.000 256.800 199.814 256.800 L 187.629 256.800 187.498 252.900 C 187.426 250.755,187.330 266.145,187.284 287.100 M0.098 297.700 C 0.171 326.794,0.325 338.578,0.633 338.522 C 0.872 338.479,1.067 338.702,1.067 339.016 C 1.067 339.447,0.935 339.478,0.533 339.145 C 0.116 338.798,0.000 338.896,0.000 339.594 C -0.000 340.222,0.177 340.418,0.600 340.255 C 1.033 340.089,1.200 340.299,1.200 341.013 L 1.200 342.000 13.000 342.000 C 24.414 342.000,24.800 341.975,24.800 341.224 C 24.800 340.797,24.980 340.336,25.200 340.200 C 25.420 340.064,25.600 339.503,25.600 338.953 C 25.600 338.403,25.465 338.036,25.300 338.138 C 25.135 338.240,25.055 321.466,25.121 300.862 C 25.188 280.258,25.127 261.915,24.986 260.100 L 24.728 256.800 12.362 256.800 L -0.004 256.800 0.098 297.700 M375.045 259.393 C 374.729 262.474,374.759 339.303,375.076 340.906 L 375.296 342.012 387.148 341.906 L 399.000 341.800 398.871 340.700 C 398.742 339.595,399.358 339.166,399.735 340.100 C 399.846 340.375,399.951 340.201,399.968 339.713 C 399.992 339.045,399.827 338.879,399.300 339.043 C 398.633 339.250,398.633 339.239,399.300 338.810 C 399.959 338.387,400.000 335.980,400.000 297.580 L 400.000 256.800 387.655 256.800 L 375.310 256.800 375.045 259.393 " stroke="none" fill="#ec583c" fill-rule="evenodd"></path><path id="path4" d="M373.454 53.403 C 373.322 53.748,373.446 54.120,373.731 54.229 C 374.104 54.372,374.234 55.378,374.196 57.835 C 374.168 59.709,374.292 61.333,374.472 61.445 C 374.653 61.556,374.800 82.337,374.800 107.624 L 374.800 153.600 387.402 153.600 L 400.003 153.600 399.902 103.700 L 399.800 53.800 392.200 53.700 C 388.020 53.644,382.322 53.554,379.537 53.500 C 376.267 53.435,374.543 53.542,374.667 53.800 C 374.773 54.020,374.597 53.880,374.277 53.488 C 373.763 52.861,373.666 52.850,373.454 53.403 M0.509 54.371 C 0.129 54.983,0.015 66.211,0.005 104.380 L -0.009 153.600 12.596 153.600 L 25.200 153.600 25.200 107.624 C 25.200 77.645,25.338 61.562,25.597 61.402 C 25.823 61.262,25.938 59.830,25.865 58.078 C 25.794 56.385,25.887 54.694,26.071 54.321 C 26.634 53.179,1.220 53.229,0.509 54.371 M187.200 114.200 L 187.200 153.600 199.600 153.600 L 212.000 153.600 212.077 149.900 L 212.153 146.200 212.400 150.000 C 212.536 152.090,212.681 136.025,212.723 114.300 L 212.800 74.800 200.000 74.800 L 187.200 74.800 187.200 114.200 " stroke="none" fill="#f48f3c" fill-rule="evenodd"></path></g></svg>